<?xml version='1.0' encoding='utf-8'?>
<svg xmlns:xlink="http://www.w3.org/1999/xlink" xmlns="http://www.w3.org/2000/svg" width="3.2796in" height="5.6998in" version="1.1" viewBox="0 0 83.303 144.77"> <defs> <linearGradient id="f"> <stop stop-color="#fff" offset="0"/> <stop stop-color="#c9c9c9" offset="1"/> </linearGradient> <linearGradient id="d"> <stop stop-color="#fff" offset="0"/> <stop stop-color="#ededed" offset="1"/> </linearGradient> <linearGradient id="a"> <stop stop-color="#c4c4c4" offset="0"/> <stop stop-color="#fff" offset="1"/> </linearGradient> <linearGradient id="b"> <stop stop-color="#c3c3c3" offset="0"/> <stop stop-color="#f7f7f7" offset=".89405"/> </linearGradient> <linearGradient id="e"> <stop stop-color="#d0c894" offset="0"/> <stop stop-color="#a09446" offset="1"/> </linearGradient> <linearGradient id="ay" x1="140.73" x2="132.16" y1="86.069" y2="81.227" gradientTransform="translate(12.98 10.714)" gradientUnits="userSpaceOnUse" xlink:href="#e"/> <linearGradient id="ax" x1="137.68" x2="131.63" y1="84.353" y2="78.846" gradientTransform="matrix(-1 0 0 1 229.03 12.037)" gradientUnits="userSpaceOnUse" xlink:href="#e"/> <linearGradient id="aw" x1="107.85" x2="108.01" y1="102.3" y2="86.721" gradientTransform="matrix(1.0013 0 0 .8795 12.843 23.064)" gradientUnits="userSpaceOnUse"> <stop stop-color="#dbd5ae" offset="0"/> <stop stop-color="#877d3b" offset="1"/> </linearGradient> <linearGradient id="av" x1="-56.273" x2="-46.955" y1="126.6" y2="126.6" gradientTransform="matrix(.62693 -.14053 .14127 .63039 198.17 -3.8007)" gradientUnits="userSpaceOnUse"> <stop stop-color="#928846" offset="0"/> <stop stop-color="#c3b977" offset="1"/> </linearGradient> <linearGradient id="au" x1="185.17" x2="185.39" y1="42.798" y2="67.329" gradientUnits="userSpaceOnUse"> <stop stop-color="#ffbb78" offset="0"/> <stop stop-color="#ffdebd" offset="1"/> </linearGradient> <linearGradient id="at" x1="27.874" x2="28.3" y1="-33.017" y2="-30.526" gradientUnits="userSpaceOnUse"> <stop stop-color="#d35f5f" offset="0"/> <stop stop-color="#a32d2d" offset=".62731"/> <stop stop-color="#d35f5f" offset="1"/> </linearGradient> <linearGradient id="as" x1="11.639" x2="16.026" y1="-42.626" y2="-28.341" gradientTransform="matrix(.34057 -.36307 .36307 .34057 37.367 -37.638)" gradientUnits="userSpaceOnUse" xlink:href="#b"/> <linearGradient id="ar" x1="11.639" x2="16.026" y1="-42.626" y2="-28.341" gradientTransform="matrix(.36026 -.47656 .47656 .36026 42.21 -35.53)" gradientUnits="userSpaceOnUse" xlink:href="#b"/> <linearGradient id="aq" x1="11.639" x2="16.026" y1="-42.626" y2="-28.341" gradientTransform="matrix(-.40461 .06902 .06902 .40461 49.388 -34.939)" gradientUnits="userSpaceOnUse" xlink:href="#b"/> <linearGradient id="ap" x1="11.639" x2="16.026" y1="-42.626" y2="-28.341" gradientTransform="matrix(-.33111 .24257 .24257 .33111 54.041 -38.578)" gradientUnits="userSpaceOnUse" xlink:href="#b"/> <linearGradient id="ao" x1="11.639" x2="16.026" y1="-42.626" y2="-28.341" gradientTransform="matrix(.3262 -.24914 .24914 .3262 32.911 -39.615)" gradientUnits="userSpaceOnUse" xlink:href="#b"/> <linearGradient id="an" x1="11.639" x2="16.026" y1="-42.626" y2="-28.341" gradientTransform="matrix(.36377 .19012 -.19012 .36377 3.4251 -34.805)" gradientUnits="userSpaceOnUse" xlink:href="#b"/> <linearGradient id="am" x1="11.639" x2="16.026" y1="-42.626" y2="-28.341" gradientTransform="matrix(.40461 .06902 -.06902 .40461 6.6686 -33.145)" gradientUnits="userSpaceOnUse" xlink:href="#b"/> <linearGradient id="al" x1="22.371" x2="23.872" y1="-72.889" y2="-62.238" gradientTransform="translate(1.7654 1.9731)" gradientUnits="userSpaceOnUse"> <stop stop-color="#f7f7f7" offset="1e-4"/> <stop stop-color="#a1a1a1" offset="1"/> </linearGradient> <linearGradient id="ak" x1="25.442" x2=".10385" y1="-56.596" y2="-54.935" gradientUnits="userSpaceOnUse"> <stop stop-color="#cecece" offset="0"/> <stop stop-color="#f7f7f7" offset=".68137"/> </linearGradient> <linearGradient id="aj" x1="26.481" x2="47.665" y1="-60.646" y2="-52.338" gradientUnits="userSpaceOnUse"> <stop stop-color="#c3c3c3" offset="0"/> <stop stop-color="#f7f7f7" offset=".60103"/> </linearGradient> <linearGradient id="ai" x1="25.535" x2="34.219" y1="-57.055" y2="-57.496" gradientTransform="matrix(1.191 -.56633 .34769 1.94 15.53 66.307)" gradientUnits="userSpaceOnUse" xlink:href="#a"/> <linearGradient id="ah" x1="25.535" x2="34.219" y1="-57.055" y2="-57.496" gradientTransform="matrix(.89081 .12964 -.1296 .77203 -4.5877 -16.514)" gradientUnits="userSpaceOnUse" xlink:href="#a"/> <linearGradient id="ag" x1="25.535" x2="34.219" y1="-57.055" y2="-57.496" gradientTransform="matrix(1.2593 -.39154 .068818 1.9697 -2.0879 63.765)" gradientUnits="userSpaceOnUse" xlink:href="#a"/> <linearGradient id="af" x1="24.372" x2="32.018" y1="-57.326" y2="-59.569" gradientTransform="matrix(-.15499 -1.3097 -1.8271 .73891 -60.41 27.556)" gradientUnits="userSpaceOnUse" xlink:href="#d"/> <linearGradient id="ae" x1="25.535" x2="37.839" y1="-57.055" y2="-60.054" gradientTransform="matrix(.89081 .12964 -.1296 .77203 -4.7564 -15.956)" gradientUnits="userSpaceOnUse" xlink:href="#a"/> <linearGradient id="ad" x1="25.535" x2="34.219" y1="-57.055" y2="-57.496" gradientTransform="matrix(-.15499 -1.3097 -1.8271 .73891 -61.805 24.582)" gradientUnits="userSpaceOnUse" xlink:href="#d"/> <linearGradient id="ac" x1="24.141" x2="29.379" y1="-57.875" y2="-62.911" gradientTransform="matrix(.15499 -1.3097 1.8271 .73891 115 28.657)" gradientUnits="userSpaceOnUse" xlink:href="#d"/> <linearGradient id="ab" x1="25.535" x2="34.219" y1="-57.055" y2="-57.496" gradientTransform="matrix(-1.191 -.56633 -.34769 1.94 36.361 66.775)" gradientUnits="userSpaceOnUse" xlink:href="#a"/> <linearGradient id="aa" x1="27.144" x2="41.984" y1="-57.611" y2="-64.459" gradientTransform="matrix(-.89081 .12964 .1296 .77203 56.478 -16.047)" gradientUnits="userSpaceOnUse" xlink:href="#a"/> <linearGradient id="z" x1="25.535" x2="34.029" y1="-57.055" y2="-58.298" gradientTransform="matrix(-1.2593 -.39154 -.068818 1.9697 53.979 64.232)" gradientUnits="userSpaceOnUse" xlink:href="#a"/> <linearGradient id="y" x1="7.2631" x2="25.169" y1="-55.56" y2="-56.515" gradientUnits="userSpaceOnUse"> <stop stop-color="#fff" offset="0"/> <stop stop-color="#c4c4c4" offset="1"/> </linearGradient> <linearGradient id="x" x1="24.101" x2="33.201" y1="-58.895" y2="-51.499" gradientTransform="matrix(.15499 -1.3097 1.8271 .73891 113.7 25.049)" gradientUnits="userSpaceOnUse"> <stop stop-color="#fff" offset="0"/> <stop stop-color="#d5d5d5" offset="1"/> </linearGradient> <linearGradient id="w" x1="20.461" x2="34.048" y1="-57.681" y2="-58.798" gradientTransform="matrix(.70996 -.19063 .19063 .70996 22.634 -20.559)" gradientUnits="userSpaceOnUse" xlink:href="#a"/> <linearGradient id="v" x1="25.535" x2="34.219" y1="-57.055" y2="-57.496" gradientTransform="matrix(-.42037 -.49077 .46912 .0023363 63.197 -52.547)" gradientUnits="userSpaceOnUse" xlink:href="#a"/> <linearGradient id="u" x1="25.535" x2="34.219" y1="-57.055" y2="-57.496" gradientTransform="matrix(.72967 -.089295 .089295 .72967 13.011 -21.439)" gradientUnits="userSpaceOnUse" xlink:href="#a"/> <linearGradient id="t" x1="25.535" x2="34.721" y1="-57.055" y2="-56.403" gradientTransform="matrix(-.73385 .042972 .042972 .73385 46.937 -26.101)" gradientUnits="userSpaceOnUse" xlink:href="#a"/> <linearGradient id="s" x1="25.868" x2="29.119" y1="-53.07" y2="-57.167" gradientTransform="matrix(.036765 .99932 .99932 -.036765 82.475 -97.847)" gradientUnits="userSpaceOnUse" xlink:href="#f"/> <linearGradient id="r" x1="25.314" x2="28.875" y1="-54.723" y2="-57.346" gradientTransform="matrix(.92592 .37773 .37773 -.92592 20.844 -130.75)" gradientUnits="userSpaceOnUse" xlink:href="#f"/> <radialGradient id="j" cx="174.1" cy="36.194" r=".44756" gradientTransform="matrix(1.0354 0 0 .9413 -6.1553 1.7175)" gradientUnits="userSpaceOnUse"> <stop stop-color="#e6e6e6" offset="0"/> <stop stop-color="#808080" offset=".62836"/> </radialGradient> <radialGradient id="c" cx="174.1" cy="36.194" r=".44756" gradientTransform="matrix(.59361 0 0 .61982 70.798 12.78)" gradientUnits="userSpaceOnUse"> <stop stop-color="#e6e6e6" offset="0"/> <stop stop-color="#808080" offset=".62836"/> </radialGradient> <radialGradient id="i" cx="174.1" cy="36.194" r=".44756" gradientTransform="matrix(1.0334 0 0 .98629 -5.7995 .10435)" gradientUnits="userSpaceOnUse"> <stop stop-color="#e6e6e6" offset="0"/> <stop stop-color="#808080" offset=".62836"/> </radialGradient> <radialGradient id="h" cx="174.1" cy="36.194" r=".44756" gradientTransform="matrix(1.0288 0 0 1.0918 -4.9985 -3.6779)" gradientUnits="userSpaceOnUse"> <stop stop-color="#e6e6e6" offset="0"/> <stop stop-color="#808080" offset=".62836"/> </radialGradient> <radialGradient id="g" cx="-109.91" cy="95.197" r="59.155" gradientTransform="matrix(.54276 0 0 .1276 266.61 120.49)" gradientUnits="userSpaceOnUse"> <stop stop-color="#877d3b" offset="0"/> <stop stop-color="#d0c894" offset="1"/> </radialGradient> <linearGradient id="q" x1="67.384" x2="123.43" y1="184.37" y2="185.08" gradientTransform="translate(111 -41.965)" gradientUnits="userSpaceOnUse"> <stop stop-color="#baae62" offset="0"/> <stop stop-color="#d0c894" offset=".47115"/> <stop stop-color="#baae62" offset="1"/> </linearGradient> <linearGradient id="p" x1="70.252" x2="121.42" y1="193.92" y2="193.92" gradientTransform="translate(111 -41.965)" gradientUnits="userSpaceOnUse"> <stop stop-color="#877d3b" offset="0"/> <stop stop-color="#baae62" offset=".46346"/> <stop stop-color="#877d3b" offset="1"/> </linearGradient> <linearGradient id="o" x1="115.27" x2="142.06" y1="77.158" y2="77.469" gradientTransform="matrix(.62613 0 0 .62613 15.521 4.8775)" gradientUnits="userSpaceOnUse"> <stop stop-color="#008d71" offset="0"/> <stop stop-color="#009f7f" offset=".2399"/> <stop stop-color="#00ab88" offset=".494"/> <stop stop-color="#009f7f" offset=".71173"/> <stop stop-color="#008d71" offset="1"/> </linearGradient> <linearGradient id="n" x1="102.8" x2="140.18" y1="113.32" y2="113.32" gradientUnits="userSpaceOnUse"> <stop stop-color="#333" offset="0"/> <stop stop-color="#4d4d4d" offset=".48441"/> <stop stop-color="#333" offset="1"/> </linearGradient> <linearGradient id="m" x1="149.7" x2="139.96" y1="84.75" y2="95.88" gradientTransform="matrix(-.38771 .49165 .49165 .38771 287.92 -1.7876)" gradientUnits="userSpaceOnUse"> <stop stop-color="#ffae5e" offset="0"/> <stop stop-color="#ffc791" offset=".40038"/> <stop stop-color="#ffb66f" offset="1"/> </linearGradient> <linearGradient id="l" x1="152.3" x2="149.43" y1="87.003" y2="94.976" gradientTransform="matrix(.41443 .46935 -.46935 .41443 275.38 -2.0765)" gradientUnits="userSpaceOnUse"> <stop stop-color="#ffb66f" offset="0"/> <stop stop-color="#ffc791" offset=".40038"/> <stop stop-color="#ffc085" offset="1"/> </linearGradient> <linearGradient id="k" x1="329.79" x2="330.48" y1="108.86" y2="108.86" gradientTransform="matrix(-.19007 .096058 .096058 .19007 386.25 63.859)" gradientUnits="userSpaceOnUse"> <stop stop-color="#999" offset="0"/> <stop stop-color="#c4c4c4" offset=".63895"/> <stop stop-color="#999" offset="1"/> </linearGradient> </defs> <g transform="translate(-884.79 -22.056)"> <g transform="matrix(1.4607 0 0 1.4607 511.55 -74.428)"> <g transform="matrix(.62613 0 0 .62613 208.4 48.889)"> <path d="m85.181 47.196c-0.60975 0.0053-1.2661 0.05302-1.9766 0.14624-1.6124 0-2.9104 1.298-2.9104 2.9104l0.17518 6.0172c1.0753 15.803 4.8507 30.795 9.7601 45.448 20.227 5.4924 40.453 4.4633 60.68 0 4.8606-15.371 10.347-29.865 11.538-45.072 0.26783-2.7671 0.339-4.301 0.339-6.3934 0-1.6124-1.298-2.9104-2.9104-2.9104-7.3372-0.96271-8.9001 2.9462-13.173 8-16.922 2.7754-33.668 2.8048-50.237 0.1049-3.9235-4.6136-5.5544-8.301-11.285-8.2512z" fill="#d0c894"/> <path d="m95.089 129.83 49.967 0.5774c1.2626 9.5769-0.62946 14.387-2.903 20.101l-3.298-0.0787s1.9217-7.2214-0.55623-10.517c-3.9928-5.3107-12.655-4.337-19.217-4.3805-6.543-0.0433-15.182-1.0278-19.352 4.1136-2.663 3.283-0.70064 10.863-0.70064 10.863h-3.056c-1.3905-6.2592-4.8486-10.696-0.88403-20.678z" fill="#260f00"/> <path d="m147.2 58.234c0.81538 13.908 1.4065 25.154-2.3735 44.563l-17.832-3.2165c16.917-0.92337 16.045-26.323 20.206-41.347z" fill="#c3b977" opacity=".50524" stroke-linecap="round"/> <path d="m163.24 81.801c-3.8048-1.8088-11.174-4.2029-15.061 0.46772-2.6098 3.1363-5.1305 10.509-5.2742 18.244-0.14214 7.6489 2.0762 15.651 2.4272 20.446 8.3412-9.0064 13.831-26.325 17.908-39.157z" fill="url(#ay)"/> <path d="m87.614 132.93 64.504 0.74862c1.6298 12.417-0.81259 18.654-3.7475 26.062l-4.2574-0.10205s2.4808-9.3628-0.71804-13.636c-5.1543-6.8856-16.337-5.6232-24.808-5.6796-8.4465-0.0562-19.598-1.3326-24.982 5.3335-3.4377 4.2565-0.90447 14.084-0.90447 14.084h-3.945c-1.795-8.1153-6.2591-13.867-1.1412-26.81z" fill="#520"/> <path d="m97.17 58.234c-0.81537 13.908-1.4065 25.154 2.3735 44.563l17.832-3.2165c-16.917-0.92337-16.045-26.323-20.206-41.347z" fill="#c3b977" opacity=".50524" stroke-linecap="round"/> <path d="m78.767 83.124c3.8048-1.8088 11.174-4.2029 15.061 0.46772 2.4315 2.9219 5.6797 10.01 5.9122 17.148 0.26375 8.0997-2.6898 16.417-3.0651 21.542-8.3412-9.0064-13.831-26.325-17.908-39.157z" fill="url(#ax)"/> <path d="m99.717 102.36c10.386-4.0495 37.329-2.678 43.22-0.34976 0.8523 1.3792 2.4879 5.1264 2.2299 8.8927-12.751 2.6439-31.608 2.709-48.485 0.52932-0.4047-1.2609 0.60699-6.4345 3.0356-9.0722z" fill="url(#aw)"/> <path d="m161.19 81.305c-1.2335-0.04415-2.5933 0.39825-3.9677 1.5255-7.9 6.4794-11.945 24.32-13.725 37.605-12.456-1.7741-40.422-1.571-45.546-0.5824-1.7837-13.219-5.8812-29.384-13.582-35.7-4.8867-4.008-9.591 0.64339-9.0764 5.0286 1.4401 12.274 3.806 26.752 12.016 44.676 26.151 1.2361 53.625 2.9602 64.772 0.14521 10.327-17.961 12.955-32.368 14.217-46.144 0.36982-3.1519-1.9564-6.4413-5.1087-6.5541z" fill="#d0c894"/> <path d="m96.525 110.81c29.283 2.8848 46.084 0.8772 48.402-0.46303 0.30298 4.8935-0.28482 8.7931-1.8067 10.954-15.402 2.2368-26.435 2.1957-44.58-0.14835-1.3359-1.8309-2.1397-4.979-2.0145-10.343z" fill="#d5cea0"/> <g transform="translate(12.98 10.994)" stroke="#877d3b" stroke-linecap="round" stroke-linejoin="round" stroke-width=".50333"> <g transform="matrix(.54266 -.017107 .019539 .5495 194.88 50.107)"> <path transform="rotate(205.89)" d="m114.21-140.98a2.1295 2.1295 0 0 1-1.2279 1.9292 2.1295 2.1295 0 0 1-2.2676-0.29566l1.3661-1.6336z" fill="#877d3b"/> <path transform="rotate(10.78 -162.56 77.832)" d="m-162.35 77.873c0.61454-0.54128 1.3277-0.97024 2.0939-1.2595 0.65732-0.24812 1.3533-0.39356 2.055-0.42945" fill="none"/> <path transform="matrix(-.99832 -.057914 -.057914 .99832 -319.51 -8.6127)" d="m-162.35 77.873c0.61454-0.54128 1.3277-0.97024 2.0939-1.2595 0.65732-0.24812 1.3533-0.39356 2.055-0.42945" fill="none"/> </g> <g transform="matrix(.5422 .028168 -.026315 .54921 189.25 54.487)"> <path transform="rotate(205.89)" d="m114.21-140.98a2.1295 2.1295 0 0 1-1.2279 1.9292 2.1295 2.1295 0 0 1-2.2676-0.29566l1.3661-1.6336z" fill="#877d3b"/> <path transform="rotate(10.78 -162.56 77.832)" d="m-162.35 77.873c0.61454-0.54128 1.3277-0.97024 2.0939-1.2595 0.65732-0.24812 1.3533-0.39356 2.055-0.42945" fill="none"/> <path transform="matrix(-.99832 -.057914 -.057914 .99832 -319.51 -8.6127)" d="m-162.35 77.873c0.61454-0.54128 1.3277-0.97024 2.0939-1.2595 0.65732-0.24812 1.3533-0.39356 2.055-0.42945" fill="none"/> </g> <g transform="matrix(.53891 -.065954 .068991 .5455 200.06 39.617)"> <path transform="rotate(205.89)" d="m114.21-140.98a2.1295 2.1295 0 0 1-1.2279 1.9292 2.1295 2.1295 0 0 1-2.2676-0.29566l1.3661-1.6336z" fill="#877d3b"/> <path transform="rotate(10.78 -162.56 77.832)" d="m-162.35 77.873c0.61454-0.54128 1.3277-0.97024 2.0939-1.2595 0.65732-0.24812 1.3533-0.39356 2.055-0.42945" fill="none"/> <path transform="matrix(-.99832 -.057914 -.057914 .99832 -319.51 -8.6127)" d="m-162.35 77.873c0.61454-0.54128 1.3277-0.97024 2.0939-1.2595 0.65732-0.24812 1.3533-0.39356 2.055-0.42945" fill="none"/> </g> <g transform="matrix(.5422 .028168 -.026315 .54921 186.86 59.58)"> <path transform="rotate(205.89)" d="m114.21-140.98a2.1295 2.1295 0 0 1-1.2279 1.9292 2.1295 2.1295 0 0 1-2.2676-0.29566l1.3661-1.6336z" fill="#877d3b"/> <path transform="rotate(10.78 -162.56 77.832)" d="m-162.35 77.873c0.61454-0.54128 1.3277-0.97024 2.0939-1.2595 0.65732-0.24812 1.3533-0.39356 2.055-0.42945" fill="none"/> <path transform="matrix(-.99832 -.057914 -.057914 .99832 -319.51 -8.6127)" d="m-162.35 77.873c0.61454-0.54128 1.3277-0.97024 2.0939-1.2595 0.65732-0.24812 1.3533-0.39356 2.055-0.42945" fill="none"/> </g> <g transform="matrix(.53891 -.065954 .068991 .5455 201.65 44.578)"> <path transform="rotate(205.89)" d="m114.21-140.98a2.1295 2.1295 0 0 1-1.2279 1.9292 2.1295 2.1295 0 0 1-2.2676-0.29566l1.3661-1.6336z" fill="#877d3b"/> <path transform="rotate(10.78 -162.56 77.832)" d="m-162.35 77.873c0.61454-0.54128 1.3277-0.97024 2.0939-1.2595 0.65732-0.24812 1.3533-0.39356 2.055-0.42945" fill="none"/> <path transform="matrix(-.99832 -.057914 -.057914 .99832 -319.51 -8.6127)" d="m-162.35 77.873c0.61454-0.54128 1.3277-0.97024 2.0939-1.2595 0.65732-0.24812 1.3533-0.39356 2.055-0.42945" fill="none"/> </g> </g> </g> <g transform="matrix(.62613 0 0 .62613 152.99 56.947)"> <path d="m180.78 73.317c4.5472 4.3873 8.3718 13.074 4.516 20.247-4.1671-6.4843-3.9356-12.754-4.516-20.247z" fill="url(#av)"/> <path d="m180.78 73.317c2.6096-2.6415 6.4194-1.6043 10.912-2.1148 3.0331-0.34465 7.6562-4.2254 9.1594-2.3843 2.9534 3.6174 6.3858 17.906 4.5227 20.182-2.8812 3.5182-20.258 6.4155-20.071 4.4991 1.0627-10.907-4.2824-19.109-4.5227-20.182z" fill="#c3b977"/> <ellipse transform="matrix(.8269 -.56235 .55992 .82855 0 0)" cx="116.51" cy="176.2" rx=".51681" ry=".51906" fill="#877d3b" stroke="#877d3b" stroke-linecap="square" stroke-width=".275"/> <path transform="matrix(.1108 .26453 -.26708 .11152 234.41 114.7)" d="m-162.7 77.658c0.0968-0.92618 0.24545-1.8469 0.44509-2.7565 1.1145-5.0776 3.8624-9.7834 7.7369-13.249" fill="none" stroke="#877d3b" stroke-linecap="round" stroke-linejoin="round" stroke-width=".95452"/> <path transform="matrix(-.13924 .25021 -.2518 -.14367 192.25 132.82)" d="m-162.7 77.658c0.32758-0.60587 0.683-1.1967 1.0648-1.77 3.5116-5.2731 9.3449-8.9376 15.62-9.8121" fill="none" stroke="#877d3b" stroke-linecap="round" stroke-linejoin="round" stroke-width=".95452"/> </g> <g transform="matrix(.6707 0 0 .6707 186.14 129.37)"> <g transform="matrix(.81258 0 0 .81258 -4.4152 -102.01)" stroke-linecap="round" stroke-linejoin="round"> <path d="m190.97 43.068c-0.45082 3.0821 0.96003 6.621 2.311 8.2939-0.60701 23.702-16.506 19.12-16.143 0.02634 1.8653-0.86561 2.7404-5.045 2.1949-8.3202-0.16557-0.99419 11.724-0.59178 11.637 0z" fill="url(#au)" stroke-width=".60714"/> <g transform="matrix(.84401 0 0 .84401 161.86 90.694)"> <path d="m28.102-49.872c-1.1459-0.1685-2.138-0.74962-2.9668-0.88672-1.3346-0.22076-2.3563 0.12515-2.3563 0.12515s1.1927-0.56339 2.3356-0.37434c0.89084 0.14736 1.869 0.63277 2.9648 0.7939 1.7703 0.26031 3.7188-0.31881 3.7188-0.31881s-2.2931 0.86712-3.6961 0.66082z" color="#000000" fill="#ffc183" style="-inkscape-stroke:none"/> <path d="m28.102-50.092c-1.1459-0.1685-2.138-0.74962-2.9668-0.88672-1.3346-0.22076-2.4082 0.38477-2.4082 0.38477s1.2966-0.77108 2.4395-0.58203c0.89084 0.14736 1.869 0.72363 2.9648 0.88476 1.7703 0.26031 3.7188-0.2539 3.7188-0.2539s-2.345 0.65943-3.748 0.45312z" color="#000000" fill="#ffb469" style="-inkscape-stroke:none"/> <path d="m26.907-51.121c0.93478 0.30787 1.1527 0.72383 2.8769 0.09525-1.8325 0.22112-1.6398 0.18382-2.8769-0.09525z" color="#000000" fill="#ffc183" stroke-width=".35284" style="-inkscape-stroke:none"/> <path d="m26.847-51.139c0.92652 0.21965 1.2044 0.47964 2.9549 0.11966-1.8325 0.18634-1.7178 0.1155-2.9549-0.11966z" color="#000000" fill="#ffb469" stroke-width=".32389" style="-inkscape-stroke:none"/> </g> <g transform="matrix(.80595 -.25061 .25061 .80595 177.68 96.902)"> <path d="m26.907-51.121c0.93478 0.30787 1.1527 0.72383 2.8769 0.09525-1.8325 0.22112-1.6398 0.18382-2.8769-0.09525z" color="#000000" fill="#ffc183" stroke-width=".35284" style="-inkscape-stroke:none"/> <path d="m26.847-51.139c0.92652 0.21965 1.2044 0.47964 2.9549 0.11966-1.8325 0.18634-1.7178 0.1155-2.9549-0.11966z" color="#000000" fill="#ffb469" stroke-width=".32389" style="-inkscape-stroke:none"/> <path d="m26.847-51.139c0.92652 0.21965 1.2044 0.47964 2.9549 0.11966-1.8325 0.18634-1.7178 0.1155-2.9549-0.11966z" color="#000000" fill="#ffb469" stroke-width=".32389" style="-inkscape-stroke:none"/> </g> <g transform="matrix(1.0166 .26115 -.29918 .88741 140.28 86.386)"> <path d="m26.907-51.121c0.93478 0.30787 1.1527 0.72383 2.8769 0.09525-1.8325 0.22112-1.6398 0.18382-2.8769-0.09525z" color="#000000" fill="#ffc183" stroke-width=".35284" style="-inkscape-stroke:none"/> <path d="m26.847-51.139c0.92652 0.21965 1.2044 0.47964 2.9549 0.11966-1.8325 0.18634-1.7178 0.1155-2.9549-0.11966z" color="#000000" fill="#ffb469" stroke-width=".32389" style="-inkscape-stroke:none"/> <path d="m26.847-51.139c0.92652 0.21965 1.2044 0.47964 2.9549 0.11966-1.8325 0.18634-1.7178 0.1155-2.9549-0.11966z" color="#000000" fill="#ffb469" stroke-width=".32389" style="-inkscape-stroke:none"/> </g> </g> <path d="m146.09-87.12c-3.3056 0.0075-6.2176 3.1299-7.1683 7.6861-1.7282 1.5648-1.484 3.6359-1.4916 5.7907-1.5234 2.8525 0.69041 5.7923 3.6859 7.2893 0.39759 0.19868 0.81459 0.37509 1.2492 0.52688 0.50954 1.6326 2.008 2.1796 3.7151 2.1816 1.707-0.0021 3.2247-0.54912 3.7342-2.1816 3.7089-1.2954 7.1696-5.0599 5.2556-7.8161-3e-4 -2.1607-0.0748-4.2394-1.8061-5.8098-0.95608-4.5515-3.87-7.6656-7.174-7.6669z" fill="#fc9" stroke-linecap="round" stroke-linejoin="round" stroke-width=".63495"/> <g transform="matrix(-.68582 0 0 .68582 165.34 -46.117)"> <path d="m38.866-47.157c1.4205-1.4974 3.2259-0.77157 3.6359 0.40279 1.4207 4.0698 0.34402 5.7322-0.27438 7.2251 1.4159 3.5529-1.1055 2.9362-1.2016 1.6769-0.69277-3.2553-0.79519-6.3591-2.1599-9.3048z" fill="#ffc890"/> <path d="m41.013-39.441c1.1628-1.5926 1.2958-7.9417-0.76751-3.2313 0.98514-1.3772 1.1208 0.83187 0.76751 3.2313z" fill="#ffb46a"/> <path d="m42.136-39.929c1.9065-3.2899 0.21388-8.9378-2.5962-6.8538 2.1264-1.0896 3.9525 1.8495 2.5962 6.8538z" fill="#ffc183"/> </g> <g transform="matrix(.68582 0 0 .68582 127.04 -46.117)"> <path d="m38.866-47.157c1.4205-1.4974 3.2259-0.77157 3.6359 0.40279 1.4207 4.0698 0.34402 5.7322-0.27438 7.2251 1.4159 3.5529-1.1055 2.9362-1.2016 1.6769-0.31986-3.3382-0.79067-6.3601-2.1599-9.3048z" fill="#ffc890"/> <path d="m41.013-39.441c1.1628-1.5926 1.2958-7.9417-0.76751-3.2313 0.98514-1.3772 1.1208 0.83187 0.76751 3.2313z" fill="#ffb46a"/> <path d="m42.136-39.929c1.9065-3.2899 0.21388-8.9378-2.5962-6.8538 2.1264-1.0896 3.9525 1.8495 2.5962 6.8538z" fill="#ffc183"/> </g> <path d="m149.26-71.192c0.3588 2.1966 4.2333 3.4922 5.8312 0.09795 1.2514-4.3951-6.8131-5.1406-5.8312-0.09795z" fill="#fff" opacity=".097967" stroke-linecap="round" stroke-linejoin="round" stroke-width=".071922"/> <path d="m147.53-78.902c0.77413-1.0007 2.0504-0.4807 3.0617 0.07159 0.74862 0.40885 0.63773 0.21158 1.1598 0.28715-0.5669 0.14173-0.68793 0.04581-1.1918-0.19667-1.8908-0.9099-2.1749 0.4311-2.8533 0.21387-0.13183-0.04222-0.26112-0.26645-0.17642-0.37594z" fill="#f1f1f1"/> <g transform="matrix(.68582 0 0 .68582 127.04 -46.117)"> <g transform="translate(0 -.18358)"> <path d="m23.204-40.762c-3.157-0.89451-5.0129-1.9252-7.9051 0.60815 2.084-3.3661 5.0781-2.096 7.9051-0.60815z" fill="#ffc183"/> <path transform="matrix(.99599 -.076576 -.089434 -.8528 -2.3553 -68.589)" d="m22.685-34.679c-2.6834 1.367-4.9482 3.1782-7.8 0.37883 2.5608 3.1567 5.4493 1.0979 7.8-0.37883z" fill="#ffb469"/> </g> <g transform="matrix(-1 0 0 1 56.042 -.20769)"> <path d="m23.204-40.762c-3.157-0.89451-5.0129-1.9252-7.9051 0.60815 2.084-3.3661 5.0781-2.096 7.9051-0.60815z" fill="#ffc183"/> <path transform="matrix(.99599 -.076576 -.089434 -.8528 -2.3553 -68.589)" d="m22.685-34.679c-2.6834 1.367-4.9482 3.1782-7.8 0.37883 2.5608 3.1567 5.4493 1.0979 7.8-0.37883z" fill="#ffb469"/> </g> </g> <path d="m137.42-71.192c0.3588 2.1966 4.2333 3.4922 5.8312 0.09795 1.2514-4.3951-6.8131-5.1406-5.8312-0.09795z" fill="#fff" opacity=".097967" stroke-linecap="round" stroke-linejoin="round" stroke-width=".071922"/> <g transform="matrix(.68582 0 0 .68582 127.04 -46.117)"> <path d="m26.737-46.091c0.27302 3.2775 0.31599 5.8316-0.96288 8.8996 1.5184-3.4678 1.957-5.0002 0.96288-8.8996z" fill="#ffc183"/> <path d="m26.777-46.073c0.19919 3.2775-0.06412 6.5292-1.3186 9.7257 0 0 1.2446-3.1547 1.4667-4.8191 0.21639-1.6219-0.1481-4.9066-0.1481-4.9066z" fill="#ffb469"/> <path d="m28.773-46.091c-0.27302 3.2775-0.31599 5.8316 0.96288 8.8996-1.5184-3.4678-1.957-5.0002-0.96288-8.8996z" fill="#ffc183"/> <path d="m28.729-46.073c-0.19919 3.2775 0.06412 6.5292 1.3186 9.7257 0 0-1.2446-3.1547-1.4667-4.8191-0.21639-1.6219 0.1481-4.9066 0.1481-4.9066z" fill="#ffb469"/> <path d="m25.624-35.694c0.8278 1.2425 2.616 2.5177 4.3174-0.0038-1.5872 1.3405-2.2604 1.7601-4.3174 0.0038z" fill="#ffc183"/> <path d="m25.579-35.767c0.75641 0.85955 2.3564 2.4788 4.3952 0.01565-1.5872 1.3405-2.3707 1.8055-4.3952-0.01565z" fill="#ffb469"/> <path d="m29.644-35.24c0.55873 0.1389 2.1004-1.5425 0.19062-2.2527 1.8388 0.25831 1.1776 2.3019-0.19062 2.2527z" fill="#ffc183"/> <path d="m29.51-35.214c0.91285 0.0536 1.9371-1.815 0.29292-2.2528 1.477 0.05058 1.143 2.2719-0.29292 2.2528z" fill="#ffb469"/> <path d="m25.939-35.24c-0.55873 0.1389-2.1004-1.5425-0.19062-2.2527-1.8388 0.25831-1.1776 2.3019 0.19062 2.2527z" fill="#ffc183"/> <path d="m26.064-35.214c-0.91285 0.0536-1.9371-1.815-0.29292-2.2528-1.477 0.05058-1.143 2.2719 0.29292 2.2528z" fill="#ffb469"/> <path d="m26.421-37.238c-1.2507 3.4122 4.0332 3.3869 2.4404-0.11679-0.7162-1.5755-0.97081-7.7819-1.1865-8.1019 0 0-0.0032 4.8065-1.2539 8.2187z" fill="#fff" opacity=".09427" stroke-linecap="round" stroke-linejoin="round" stroke-width=".10487"/> <path d="m30.054-36.375c0.02737 0.53321 0.36877 0.76593 0.55494 0.11642 0.03771-0.78306-0.56959-1.161-0.72269-1.0888-0.10653 0.05019 0.13702 0.47016 0.16776 0.9724z" fill="#fff" opacity=".097967" stroke-linecap="round" stroke-linejoin="round" stroke-width=".009788"/> <path d="m25.515-36.366c-0.02737 0.53321-0.36877 0.76593-0.55494 0.11642-0.03771-0.78306 0.56959-1.161 0.72269-1.0888 0.10653 0.05019-0.13702 0.47016-0.16776 0.9724z" fill="#fff" opacity=".097967" stroke-linecap="round" stroke-linejoin="round" stroke-width=".009788"/> <g transform="matrix(.51586 -.26358 .3914 .3474 42.218 -19.18)" stroke-linecap="round" stroke-linejoin="round"> <path d="m26.907-51.121c0.93478 0.30787 1.1527 0.72383 2.8769 0.09525-1.8325 0.22112-1.6398 0.18382-2.8769-0.09525z" color="#000000" fill="#ffc183" stroke-width=".35284" style="-inkscape-stroke:none"/> <path d="m26.847-51.139c0.92652 0.21965 1.2044 0.47964 2.9549 0.11966-1.8325 0.18634-1.7178 0.1155-2.9549-0.11966z" color="#000000" fill="#ffb469" stroke-width=".32389" style="-inkscape-stroke:none"/> </g> <g transform="matrix(.63768 -.25651 .25936 .63296 32.132 -4.7495)" stroke-linecap="round" stroke-linejoin="round"> <path d="m26.907-51.121c0.93478 0.30787 1.1527 0.72383 2.8769 0.09525-1.8325 0.22112-1.6398 0.18382-2.8769-0.09525z" color="#000000" fill="#ffc183" stroke-width=".35284" style="-inkscape-stroke:none"/> <path d="m26.847-51.139c0.92652 0.21965 1.2044 0.47964 2.9549 0.11966-1.8325 0.18634-1.7178 0.1155-2.9549-0.11966z" color="#000000" fill="#ffb469" stroke-width=".32389" style="-inkscape-stroke:none"/> </g> <g transform="matrix(.63703 -.11157 .15982 .44471 27.024 -18.238)" stroke-linecap="round" stroke-linejoin="round"> <path d="m26.907-51.121c0.93478 0.30787 1.1527 0.72383 2.8769 0.09525-1.8325 0.22112-1.6398 0.18382-2.8769-0.09525z" color="#000000" fill="#ffc183" stroke-width=".35284" style="-inkscape-stroke:none"/> <path d="m26.847-51.139c0.92652 0.21965 1.2044 0.47964 2.9549 0.11966-1.8325 0.18634-1.7178 0.1155-2.9549-0.11966z" color="#000000" fill="#ffb469" stroke-width=".32389" style="-inkscape-stroke:none"/> </g> </g> <g transform="matrix(-.68582 0 0 .68582 165 -46.011)" stroke-linecap="round" stroke-linejoin="round"> <g transform="matrix(.51586 -.26358 .3914 .3474 42.218 -19.18)"> <path d="m26.907-51.121c0.93478 0.30787 1.1527 0.72383 2.8769 0.09525-1.8325 0.22112-1.6398 0.18382-2.8769-0.09525z" color="#000000" fill="#ffc183" stroke-width=".35284" style="-inkscape-stroke:none"/> <path d="m26.847-51.139c0.92652 0.21965 1.2044 0.47964 2.9549 0.11966-1.8325 0.18634-1.7178 0.1155-2.9549-0.11966z" color="#000000" fill="#ffb469" stroke-width=".32389" style="-inkscape-stroke:none"/> </g> <g transform="matrix(.63768 -.25651 .25936 .63296 32.132 -4.7495)"> <path d="m26.907-51.121c0.93478 0.30787 1.1527 0.72383 2.8769 0.09525-1.8325 0.22112-1.6398 0.18382-2.8769-0.09525z" color="#000000" fill="#ffc183" stroke-width=".35284" style="-inkscape-stroke:none"/> <path d="m26.847-51.139c0.92652 0.21965 1.2044 0.47964 2.9549 0.11966-1.8325 0.18634-1.7178 0.1155-2.9549-0.11966z" color="#000000" fill="#ffb469" stroke-width=".32389" style="-inkscape-stroke:none"/> </g> <g transform="matrix(.63703 -.11157 .15982 .44471 27.024 -18.238)"> <path d="m26.907-51.121c0.93478 0.30787 1.1527 0.72383 2.8769 0.09525-1.8325 0.22112-1.6398 0.18382-2.8769-0.09525z" color="#000000" fill="#ffc183" stroke-width=".35284" style="-inkscape-stroke:none"/> <path d="m26.847-51.139c0.92652 0.21965 1.2044 0.47964 2.9549 0.11966-1.8325 0.18634-1.7178 0.1155-2.9549-0.11966z" color="#000000" fill="#ffb469" stroke-width=".32389" style="-inkscape-stroke:none"/> </g> </g> <g transform="matrix(.70003 0 0 .70003 126.82 -45.104)"> <g transform="matrix(.82433 0 0 .82433 23.041 -30.363)"> <ellipse cx="-.87934" cy="-17.621" rx="3.4386" ry="3.1404" fill="#fff"/> <path d="m-4.5114-16.211c0.37364-0.0563 0.61044 0.20361 0.79551 0.42179 0.95193 1.1222 3.4524 2.3914 5.5887 0.07236-2.3266 2.1973-4.5846 1.0237-5.5802-0.13083-0.15273-0.17713-0.49594-0.46745-0.80402-0.36332z" fill="#333"/> <ellipse cx="-.87246" cy="-16.182" rx="1.6772" ry="1.6339" fill="#520"/> <circle cx="-.83077" cy="-15.875" r=".66202"/> <path d="m2.935-16.651c-2.6374 0.70865-5.1871 0.75959-7.6287 0 0-1.9239 1.7077-4.4539 3.8143-4.4539s3.8143 2.5301 3.8143 4.4539z" fill="#ffbf7f" stroke-linecap="round" stroke-linejoin="round" stroke-width=".81303"/> <path d="m-5.6266-17.345c0.00462 0.21371 2.6301 2.5673 8.5616 0.6941-1.4471 0.3702-6.401 1.1459-8.5616-0.6941z" fill="#333"/> </g> <g transform="matrix(-.82433 0 0 .82433 32.02 -30.363)"> <ellipse cx="-.87934" cy="-17.621" rx="3.4386" ry="3.1404" fill="#fff"/> <path d="m-4.5114-16.211c0.37364-0.0563 0.61044 0.20361 0.79551 0.42179 0.95193 1.1222 3.4524 2.3914 5.5887 0.07236-2.3266 2.1973-4.5846 1.0237-5.5802-0.13083-0.15273-0.17713-0.49594-0.46745-0.80402-0.36332z" fill="#333"/> <ellipse cx="-.87246" cy="-16.182" rx="1.6772" ry="1.6339" fill="#520"/> <circle cx="-.83077" cy="-15.875" r=".66202"/> <path d="m2.935-16.651c-2.6374 0.70865-5.1871 0.75959-7.6287 0 0-1.9239 1.7077-4.4539 3.8143-4.4539s3.8143 2.5301 3.8143 4.4539z" fill="#ffbf7f" stroke-linecap="round" stroke-linejoin="round" stroke-width=".81303"/> <path d="m-5.6266-17.345c0.00462 0.21371 2.6301 2.5673 8.5616 0.6941-1.4471 0.3702-6.401 1.1459-8.5616-0.6941z" fill="#333"/> </g> </g> <g transform="matrix(.68582 0 0 .68582 113.72 -61.601)"> <rect x="37.975" y="-20.878" width="7.9788" height="4.8702" ry="1.6721" fill="#fff" opacity=".45102"/> <rect x="37.975" y="-20.878" width="7.9788" height="4.8702" ry="1.6721" fill="none" stroke="#782121" stroke-linecap="round" stroke-linejoin="round" stroke-width=".48234"/> <g transform="translate(10.488)"> <rect x="37.975" y="-20.878" width="7.9788" height="4.8702" ry="1.6721" fill="#fff" opacity=".45102"/> <rect x="37.975" y="-20.878" width="7.9788" height="4.8702" ry="1.6721" fill="none" stroke="#782121" stroke-linecap="round" stroke-linejoin="round" stroke-width=".48234"/> </g> <path transform="matrix(.93122 0 0 1.0284 3.1589 .52685)" d="m46.004-18.381c0.40673-0.18173 0.81346-0.36346 1.2288-0.36346 0.41538 0 0.83942 0.18173 1.2635 0.36346" fill="none" stroke="#782121" stroke-linecap="round" stroke-linejoin="round" stroke-width=".482"/> <path transform="rotate(18.553 58.982 -19.417)" d="m56.615-18.578s3.7449-8.1508 3.7449-8.1508" fill="none" stroke="#782121" stroke-linecap="round" stroke-linejoin="round" stroke-width=".482"/> <path transform="rotate(-30.166 37.024 -18.765)" d="m37.89-18.358-1.2483-9.4725" fill="none" stroke="#782121" stroke-linecap="round" stroke-linejoin="round" stroke-width=".482"/> </g> <g transform="matrix(.68582 0 0 .68582 127.04 -46.117)" stroke-linecap="round" stroke-linejoin="round"> <path d="m28.102-49.872c-1.1459-0.1685-2.138-0.74962-2.9668-0.88672-1.3346-0.22076-2.3563 0.12515-2.3563 0.12515s1.1927-0.56339 2.3356-0.37434c0.89084 0.14736 1.869 0.63277 2.9648 0.7939 1.7703 0.26031 3.7188-0.31881 3.7188-0.31881s-2.2931 0.86712-3.6961 0.66082z" color="#000000" fill="#ffc183" style="-inkscape-stroke:none"/> <path d="m28.102-50.092c-1.1459-0.1685-2.138-0.74962-2.9668-0.88672-1.3346-0.22076-2.4082 0.38477-2.4082 0.38477s1.2966-0.77108 2.4395-0.58203c0.89084 0.14736 1.869 0.72363 2.9648 0.88476 1.7703 0.26031 3.7188-0.2539 3.7188-0.2539s-2.345 0.65943-3.748 0.45312z" color="#000000" fill="#ffb469" style="-inkscape-stroke:none"/> <path d="m26.907-51.121c0.93478 0.30787 1.1527 0.72383 2.8769 0.09525-1.8325 0.22112-1.6398 0.18382-2.8769-0.09525z" color="#000000" fill="#ffc183" stroke-width=".35284" style="-inkscape-stroke:none"/> <path d="m26.847-51.139c0.92652 0.21965 1.2044 0.47964 2.9549 0.11966-1.8325 0.18634-1.7178 0.1155-2.9549-0.11966z" color="#000000" fill="#ffb469" stroke-width=".32389" style="-inkscape-stroke:none"/> </g> <path d="m144.25-78.902c-0.77413-1.0007-2.0504-0.4807-3.0617 0.07159-0.74862 0.40885-0.63773 0.21158-1.1598 0.28715 0.5669 0.14173 0.68793 0.04581 1.1918-0.19667 1.8908-0.9099 2.1749 0.4311 2.8533 0.21387 0.13183-0.04222 0.26112-0.26645 0.17643-0.37594z" fill="#f1f1f1"/> <g transform="matrix(.68582 0 0 .68582 127.04 -46.117)"> <path d="m24.428-36.257c-2.2594 2.9112-5.8778 4.5308-8.7296 1.7314 2.3006 2.8427 7.2186 2.1088 8.7296-1.7314z" fill="#ffc183"/> <path d="m24.392-36.294c-2.2594 2.9112-5.8778 4.5308-8.7296 1.7314 2.282 2.8129 6.8018 1.4419 8.7296-1.7314z" fill="#ffb469"/> <path d="m22.614-33.963c-0.09409 1.5483-0.69272 2.618-0.10013 4.128-0.70842-1.3428-0.9342-1.9925-0.79905-3.4914z" fill="#ffc183"/> <path d="m22.025-33.623c-0.01006 0.16561-0.01729 0.33106-0.02127 0.49632-0.02876 1.1933 0.11128 2.3771 0.56895 3.5433 0 0-0.60875-1.292-0.70098-1.9833-0.08988-0.67367 0.1533-2.0564 0.1533-2.0564z" fill="#ffb469"/> <g transform="matrix(-1 0 0 1 55.658 -.22029)"> <path d="m24.428-36.257c-2.2594 2.9112-5.8778 4.5308-8.7296 1.7314 2.3006 2.8427 7.2186 2.1088 8.7296-1.7314z" fill="#ffc183"/> <path d="m24.392-36.294c-2.2594 2.9112-5.8778 4.5308-8.7296 1.7314 2.282 2.8129 6.8018 1.4419 8.7296-1.7314z" fill="#ffb469"/> <path d="m22.614-33.963c-0.09409 1.5483-0.69272 2.618-0.10013 4.128-0.70842-1.3428-0.9342-1.9925-0.79905-3.4914z" fill="#ffc183"/> <path d="m22.025-33.623c-0.01006 0.16561-0.01729 0.33106-0.02127 0.49632-0.02876 1.1933 0.11128 2.3771 0.56895 3.5433 0 0-0.60875-1.292-0.70098-1.9833-0.08988-0.67367 0.1533-2.0564 0.1533-2.0564z" fill="#ffb469"/> </g> <path d="m32.76-28.157c-2.8206 3.4099-7.3684 2.2412-9.5355 0.39007 0.94108 1.5223 6.2188 4.151 9.5355-0.39007z" fill="#ffc183"/> <path d="m32.916-28.287c-2.8206 3.4099-7.5372 2.3969-9.7043 0.54584 1.0132 1.3162 6.55 3.531 9.7043-0.54584z" fill="#ffb469"/> </g> <g transform="matrix(.87488 0 0 -.45406 122.08 -81.954)"> <path d="m25.624-35.694c0.8278 1.2425 2.616 2.5177 4.3174-0.0038-1.5872 1.3405-2.2604 1.7601-4.3174 0.0038z" fill="#ffc183"/> <path d="m25.579-35.767c0.75641 0.85955 2.3564 2.4788 4.3952 0.01565-1.5872 1.3405-2.3707 1.8055-4.3952-0.01565z" fill="#ffb469"/> </g> <g transform="matrix(.65489 -.20364 .20364 .65489 139.89 -41.072)" stroke-linecap="round" stroke-linejoin="round"> <path d="m26.907-51.121c0.93478 0.30787 1.1527 0.72383 2.8769 0.09525-1.8325 0.22112-1.6398 0.18382-2.8769-0.09525z" color="#000000" fill="#ffc183" stroke-width=".35284" style="-inkscape-stroke:none"/> <path d="m26.847-51.139c0.92652 0.21965 1.2044 0.47964 2.9549 0.11966-1.8325 0.18634-1.7178 0.1155-2.9549-0.11966z" color="#000000" fill="#ffb469" stroke-width=".32389" style="-inkscape-stroke:none"/> <path d="m26.847-51.139c0.92652 0.21965 1.2044 0.47964 2.9549 0.11966-1.8325 0.18634-1.7178 0.1155-2.9549-0.11966z" color="#000000" fill="#ffb469" stroke-width=".32389" style="-inkscape-stroke:none"/> </g> <g transform="matrix(.8261 .2122 -.2431 .72109 109.5 -49.617)" stroke-linecap="round" stroke-linejoin="round"> <path d="m26.907-51.121c0.93478 0.30787 1.1527 0.72383 2.8769 0.09525-1.8325 0.22112-1.6398 0.18382-2.8769-0.09525z" color="#000000" fill="#ffc183" stroke-width=".35284" style="-inkscape-stroke:none"/> <path d="m26.847-51.139c0.92652 0.21965 1.2044 0.47964 2.9549 0.11966-1.8325 0.18634-1.7178 0.1155-2.9549-0.11966z" color="#000000" fill="#ffb469" stroke-width=".32389" style="-inkscape-stroke:none"/> <path d="m26.847-51.139c0.92652 0.21965 1.2044 0.47964 2.9549 0.11966-1.8325 0.18634-1.7178 0.1155-2.9549-0.11966z" color="#000000" fill="#ffb469" stroke-width=".32389" style="-inkscape-stroke:none"/> </g> <path d="m144.49-64.903c0.12317 0.75399 3.2283 1.1609 3.7768-0.0041 0.42954-1.5086-4.1138-1.7268-3.7768 0.0041z" fill="#fff" opacity=".097967" stroke-linecap="round" stroke-linejoin="round" stroke-width=".024688"/> <g transform="matrix(-.0001755 .36237 .36237 .0001755 164.65 -79.169)" stroke-linecap="round" stroke-linejoin="round"> <path d="m26.907-51.121c0.93478 0.30787 1.1527 0.72383 2.8769 0.09525-1.8325 0.22112-1.6398 0.18382-2.8769-0.09525z" color="#000000" fill="#ffc183" stroke-width=".35284" style="-inkscape-stroke:none"/> <path d="m26.847-51.139c0.92652 0.21965 1.2044 0.47964 2.9549 0.11966-1.8325 0.18634-1.7178 0.1155-2.9549-0.11966z" color="#000000" fill="#ffb469" stroke-width=".32389" style="-inkscape-stroke:none"/> </g> <g transform="matrix(-.3691 .73345 .73345 .3691 198.45 -69.6)" stroke-linecap="round" stroke-linejoin="round"> <path d="m26.907-51.121c0.93478 0.30787 1.1527 0.72383 2.8769 0.09525-1.8325 0.22112-1.6398 0.18382-2.8769-0.09525z" color="#000000" fill="#ffc183" stroke-width=".35284" style="-inkscape-stroke:none"/> <path d="m26.847-51.139c0.92652 0.21965 1.2044 0.47964 2.9549 0.11966-1.8325 0.18634-1.7178 0.1155-2.9549-0.11966z" color="#000000" fill="#ffb469" stroke-width=".32389" style="-inkscape-stroke:none"/> </g> <g transform="matrix(.3691 .73345 -.73345 .3691 93.701 -69.525)" stroke-linecap="round" stroke-linejoin="round"> <path d="m26.907-51.121c0.93478 0.30787 1.1527 0.72383 2.8769 0.09525-1.8325 0.22112-1.6398 0.18382-2.8769-0.09525z" color="#000000" fill="#ffc183" stroke-width=".35284" style="-inkscape-stroke:none"/> <path d="m26.847-51.139c0.92652 0.21965 1.2044 0.47964 2.9549 0.11966-1.8325 0.18634-1.7178 0.1155-2.9549-0.11966z" color="#000000" fill="#ffb469" stroke-width=".32389" style="-inkscape-stroke:none"/> </g> <g transform="matrix(-1.1146 .84566 .84566 1.1146 227.47 -35.186)" stroke-linecap="round" stroke-linejoin="round"> <path d="m26.907-51.121c0.93478 0.30787 1.1527 0.72383 2.8769 0.09525-1.8325 0.22112-1.6398 0.18382-2.8769-0.09525z" color="#000000" fill="#ffc183" stroke-width=".35284" style="-inkscape-stroke:none"/> <path d="m26.847-51.139c0.92652 0.21965 1.2044 0.47964 2.9549 0.11966-1.8325 0.18634-1.7178 0.1155-2.9549-0.11966z" color="#000000" fill="#ffb469" stroke-width=".32389" style="-inkscape-stroke:none"/> </g> <g transform="matrix(1.1146 .84566 -.84566 1.1146 64.715 -35.236)" stroke-linecap="round" stroke-linejoin="round"> <path d="m26.907-51.121c0.93478 0.30787 1.1527 0.72383 2.8769 0.09525-1.8325 0.22112-1.6398 0.18382-2.8769-0.09525z" color="#000000" fill="#ffc183" stroke-width=".35284" style="-inkscape-stroke:none"/> <path d="m26.847-51.139c0.92652 0.21965 1.2044 0.47964 2.9549 0.11966-1.8325 0.18634-1.7178 0.1155-2.9549-0.11966z" color="#000000" fill="#ffb469" stroke-width=".32389" style="-inkscape-stroke:none"/> </g> <g transform="matrix(.0023794 .36236 -.36236 .0023794 127.94 -79.026)" stroke-linecap="round" stroke-linejoin="round"> <path d="m26.907-51.121c0.93478 0.30787 1.1527 0.72383 2.8769 0.09525-1.8325 0.22112-1.6398 0.18382-2.8769-0.09525z" color="#000000" fill="#ffc183" stroke-width=".35284" style="-inkscape-stroke:none"/> <path d="m26.847-51.139c0.92652 0.21965 1.2044 0.47964 2.9549 0.11966-1.8325 0.18634-1.7178 0.1155-2.9549-0.11966z" color="#000000" fill="#ffb469" stroke-width=".32389" style="-inkscape-stroke:none"/> </g> <g transform="matrix(.67894 .096961 -.096961 .67894 124.16 -49.04)" stroke-linecap="round" stroke-linejoin="round"> <path d="m32.603-34.211c-1.4948 1.4928-0.9195 0.82152-2.755 1.1882-1.1631 0.23233-1.499 0.6804-1.7222 0.64015-0.44564 0.19651-0.36162-0.28722-1.8388-0.08598-1.8237 0.24845-1.1083 0.70242-2.6732-0.05869 3.3544 4.6192 9.002 0.99379 8.9893-1.6836z" fill="url(#at)" opacity=".75046" stroke-width=".27008"/> <path d="m27.813-31.439c-0.23306 0.15658-0.36491 0.13282-0.52535 0.63118 0.27117-0.45141 0.24582-0.40147 0.52535-0.63118z" color="#000000" fill="#bb5549" stroke-width=".10066" style="-inkscape-stroke:none"/> <path d="m29.139-32.387c-0.09982 0.33262-0.04135 0.49305-0.50968 0.8185 0.39161-0.45351 0.34707-0.40921 0.50968-0.8185z" color="#000000" fill="#bb5549" stroke-width=".11715" style="-inkscape-stroke:none"/> <path d="m28.377-31.547c0.2302 0.03348 0.32019-0.03151 0.61858 0.28332-0.3643-0.24008-0.32747-0.21185-0.61858-0.28332z" color="#000000" fill="#bb5549" stroke-width=".0834" style="-inkscape-stroke:none"/> <path d="m28.803-31.514c0.26076-0.04171 0.33624-0.14261 0.7662 0.09742-0.47604-0.13672-0.42657-0.11862-0.7662-0.09742z" color="#000000" fill="#bb5549" stroke-width=".094676" style="-inkscape-stroke:none"/> <path d="m27.516-31.288c-0.19518 0.10664-0.29747 0.07833-0.46014 0.45983 0.24661-0.33645 0.22299-0.29889 0.46014-0.45983z" color="#000000" fill="#bb5549" stroke-width=".07974" style="-inkscape-stroke:none"/> <path d="m26.929-31.189c-0.19789 0.10153-0.2994 0.07062-0.47193 0.44772 0.25526-0.32992 0.23068-0.29299 0.47193-0.44772z" color="#000000" fill="#bb5549" stroke-width=".07974" style="-inkscape-stroke:none"/> <path d="m28.906-32.345c-0.08457 0.34054-0.03503 0.50478-0.4318 0.83797 0.33177-0.4643 0.29404-0.41895 0.4318-0.83797z" color="#000000" fill="#bb5549" stroke-width=".1091" style="-inkscape-stroke:none"/> <path d="m26.681-31.152c-0.19789 0.10153-0.2994 0.07062-0.47193 0.44772 0.25526-0.32992 0.23068-0.29299 0.47193-0.44772z" color="#000000" fill="#bb5549" stroke-width=".07974" style="-inkscape-stroke:none"/> <path d="m26.937-32.227c0.13541 0.41175 0.05609 0.61034 0.69141 1.0132-0.53124-0.5614-0.47082-0.50656-0.69141-1.0132z" color="#000000" fill="#bb5549" stroke-width=".15181" style="-inkscape-stroke:none"/> <path d="m27.141-32.175c0.12779 0.39065 0.05293 0.57906 0.65247 0.96128-0.50132-0.53263-0.44431-0.4806-0.65247-0.96128z" color="#000000" fill="#bb5549" stroke-width=".14365" style="-inkscape-stroke:none"/> <path d="m25.849-31.879c0.18843 0.32637 0.07805 0.48377 0.96213 0.8031-0.73925-0.44498-0.65517-0.40152-0.96213-0.8031z" color="#000000" fill="#bb5549" stroke-width=".15944" style="-inkscape-stroke:none"/> <path d="m29.906-32.347c-0.18843 0.32637-0.07805 0.48377-0.96213 0.8031 0.73925-0.44498 0.65517-0.40152 0.96213-0.8031z" color="#000000" fill="#bb5549" stroke-width=".15944" style="-inkscape-stroke:none"/> </g> <g transform="matrix(.68582 0 0 .68582 126.78 -45.689)"> <path d="m25.448-56.226 0.41185-0.47588c7.6568 1.1462 7.0242 3.2255 5.9335 5.3292 0.75639-2.2887 0.29418-4.2454-6.3453-4.8533z" fill="url(#as)"/> <path d="m25.623-56.197 0.43099-0.62025c9.283 0.39457 8.7923 2.9562 7.7582 5.6053 0.61171-2.8274-0.1886-5.1036-8.1891-4.9851z" fill="url(#ar)"/> <path d="m40.129-46.798c0.09798 1.4191 1.1832 1.6529 2.3496 1.7772-1.0034-0.27262-1.7926-0.73327-1.9444-1.804z" fill="url(#aq)"/> <path d="m39.85-46.916c0.58943 3.2675 2.0256 2.9587 3.5046 2.4068-1.451 0.29115-2.6839 0.04765-3.1514-2.3641z" fill="url(#ap)"/> <path d="m25.736-56.349 0.39947-0.33123c6.0722 1.97 5.2758 3.5754 4.1036 5.1386 0.92538-1.759 0.81465-3.413-4.5031-4.8073z" fill="url(#ao)"/> <path d="m16.201-45.969c0.12585 4.1212-1.4422 4.0434-3.1011 3.696 1.6252 0.077 2.8929-0.44535 2.7578-3.6042z" fill="url(#an)"/> <path d="m15.888-45.833c0.30726 2.1657-0.9458 2.4608-2.3099 2.6062 1.1922-0.3239 2.0819-0.91319 1.9596-2.4757z" fill="url(#am)"/> <g transform="translate(.23365 .051923)"> <path d="m16.251-61.035c5.6588 2.5678 12.147 4.8629 17.403-4.0943 3.3363-7.0969-12.203-7.0724-12.348-3.9853 4.8914 3.0717-5.9127-3.9584-5.0549 8.0796z" fill="url(#al)"/> <path d="m29.262-57.169c-7.4343 2.5122-10.035-0.94354-12.259 10.167-5.44 9.7169-22.735-8.9745-8.4853-16.442 8.8133-4.6189 15.144-1.8732 20.744 6.2751z" fill="url(#ak)"/> <path d="m25.148-56.169c3.6228-0.4079 10.62-2.7267 13.463 8.1872 5.2021 7.3447 15.47-9.6103 0.21272-17.703-7.0294-3.7282-11.602 1.5237-13.675 9.5154z" fill="url(#aj)"/> </g> </g> <g transform="matrix(.68582 0 0 .68582 126.99 -45.689)"> <path d="m26.052-58.079c4.4038-6.0483 4.6176-8.5221 11.937-7.5662-6.9581-1.3304-8.4114 0.69251-11.941 6.4858-0.0465 0.33087-0.05017 0.68796 0.0038 1.0803z" fill="url(#ai)"/> <path d="m25.378-57.002c6.0847-2.9875 12.546-4.7205 17.42-1.7631-1.9573-8.6031-15.002-3.4622-17.42 1.7631z" fill="url(#ah)"/> <path d="m25.983-57.869c4.7146-5.1456 7.7585-6.7915 14.894-5.5333-5.5565-4.1478-10.89-1.7863-14.745 4.4633-0.09299 0.32092-0.14731 0.67388-0.14958 1.0699z" fill="url(#ag)"/> <path d="m38.031-51.001c0.10192 2.4287 1.2539 3.7934 1.6027 4.0405 4.6131 3.268 10.945-8.2901 3.2946-14.463 4.401 5.9348 0.18854 18.68-4.8973 10.423z" fill="url(#af)"/> <path d="m25.209-56.444c5.8478-1.2494 9.4445-0.81557 11.738 0.38446 2.5845 1.3521 5.6526 1.8486 7.0212 2.2388-0.15039-11.237-18.574-3.3827-18.759-2.6232z" fill="url(#ae)"/> <path d="m29.333-57.024c8.6705 1.0452 9.1852 7.6262 10.73 8.0649 3.7923 1.077 5.0627-2.9195 4.2281-6.5402 0 0 0.32555 2.2569-0.50128 2.2052-2.66-0.16611-9.2957-4.3486-14.457-3.7299z" fill="url(#ad)"/> <path d="m17.887-51.509c-0.92253 3.3756-0.80519 6.85-5.8928 6.901-5.9379-0.37942-12.007-10.33-6.5073-15.974-3.6028 7.1448 4.7618 13.936 8.4182 13.263s3.1421-2.7825 3.982-4.1901z" fill="url(#ac)"/> <path d="m25.812-58.52c-3.1922-4.4145-5.8016-7.6506-11.91-6.6579 3.7272-0.77965 7.9756-0.09797 12.607 4.8876z" fill="url(#ab)"/> <path d="m25.435-56.781c-8.8016-1.7024-15.067-3.3725-19.941-0.41504-1.5196-9.587 12.719-6.0535 19.927-0.15113l-0.15654 0.5331z" fill="url(#aa)"/> <path d="m25.46-57.343c-6.5503-4.8886-9.9416-6.5017-15.416-6.3338 7.3702-2.9901 10.465-1.769 15.652 5.8081z" fill="url(#z)"/> <path d="m25.215-56.522c-6.7368-1.3741-13.455 1.2794-17.969 3.8768-7.8902-9.585 16.1-4.3833 17.969-3.8768z" fill="url(#y)"/> <path d="m25.076-56.414c-8.2941 0.53896-7.5963 7.038-9.2022 7.7422-2.0595 2.0689-7.0943 0.07973-8.2055-3.5367 1.4061-1.2427 10.132-5.3945 17.408-4.2055z" fill="url(#x)"/> <path d="m26.996-65.272c1.5157-1.4419 4.9654-4.5459 8.852-3.4589-3.8824-1.3549-8.8614 1.8433-10.332 2.9979z" fill="url(#w)"/> <path d="m27.291-65.616c-1.3591-0.98997-4.5612-2.1065-6.0454-3.6592-0.36001-0.37663-0.21321-0.8112 0.34238-0.87087-0.68607-0.06558-0.7917 0.51921-0.48707 0.9538 1.2503 1.7837 4.103 3.5547 5.2702 4.4797z" fill="url(#v)"/> <path d="m27.714-62.505c1.7027-1.2154 2.8859-6.4784 6.5819-4.8576-3.6543-1.8854-6.7736 1.752-8.3913 2.6893z" fill="url(#u)"/> <path d="m27.342-61.789c-1.8931-0.89043-6.2425-7.887-9.588-5.6299 3.2571-2.51 9.4952 2.6701 11.255 3.3021-0.5179 0.88891-1.1043 1.5724-1.6667 2.3278z" fill="url(#t)"/> <path d="m32.742-69.14c-2.809 0.3821-4.7113 1.1813-6.6153 2.618-1.0559-4.2422 0.996-4.1708 1.7393-4.234 2.1139 0.0075 3.6864 0.71694 4.876 1.616z" fill="url(#s)"/> <path d="m27.114-70.879c-2.052 0.68833-1.7731 2.6229-1.0654 4.3524-4.0869-1.9066-4.5889-2.4053-4.3406-3.1088 1.6296-1.2225 3.5779-0.99674 5.406-1.2437z" fill="url(#r)"/> </g> <g transform="matrix(1.0663 0 0 1.0663 -49.237 -109.49)" stroke="#808080" stroke-linecap="round" stroke-linejoin="round"> <ellipse cx="174.19" cy="35.882" rx=".41164" ry=".39637" fill="url(#j)" stroke-width=".071844"/> <ellipse cx="174.19" cy="35.277" rx=".236" ry=".261" fill="url(#c)" stroke-width=".044142"/> </g> <g transform="matrix(1.0663 0 0 1.0663 -29.873 -109.45)" stroke="#808080" stroke-linecap="round" stroke-linejoin="round"> <ellipse cx="174.19" cy="35.902" rx=".41083" ry=".41531" fill="url(#i)" stroke-width=".073468"/> <ellipse cx="174.19" cy="35.277" rx=".236" ry=".261" fill="url(#c)" stroke-width=".044142"/> </g> <g transform="translate(-41.296 -105.84)" stroke-linecap="round"> <path transform="matrix(.81258 0 0 .81258 142.64 93.555)" d="m47.145-59.17c1.1186 0.98356 2.7026 2.3763 4.1628 3.3715 1.4602 0.99521 2.7574 1.6199 4.1319 2.2819" fill="none" stroke="#808080" stroke-width=".1"/> <path d="m187.79 50.12c8e-3 0.08095-0.0494 0.20125-0.0989 0.19986-0.0495-0.0014-0.0842-0.12376-0.0805-0.20488 6e-3 -0.12402 0.16525-0.14232 0.1794 5e-3z" fill="none" stroke="#4d4d4d" stroke-width=".040629"/> <path transform="matrix(-.81258 0 0 .81258 232.75 93.562)" d="m47.947-59.304c0.90354 1.0193 2.183 2.4626 3.5019 3.4812 1.319 1.0187 2.6162 1.6434 3.9907 2.3053" fill="none" stroke="#808080" stroke-width=".1"/> <g transform="matrix(1.0663 0 0 1.0663 1.9537 12.844)" stroke="#808080" stroke-linejoin="round"> <ellipse cx="174.19" cy="35.948" rx=".409" ry=".45973" fill="url(#h)" stroke-width=".077124"/> <ellipse cx="174.19" cy="35.277" rx=".236" ry=".261" fill="url(#c)" stroke-width=".044142"/> </g> </g> </g> <g transform="matrix(.57327 0 0 .57327 164.3 68.44)"> <path d="m180.1 133.43c3.9611-8.7354 48.988-9.4341 52.773 0.17957 0 0-3.3633 8.8951-26.478 7.7557-12.684 1.8421-21.013-2.3756-26.295-7.9353z" fill="url(#g)"/> <g transform="matrix(.53491 -.093229 .091999 .54206 304.7 76.613)" stroke="#877d3b" stroke-linecap="round" stroke-linejoin="round" stroke-width=".50333"> <path transform="rotate(205.89)" d="m114.21-140.98a2.1295 2.1295 0 0 1-1.2279 1.9292 2.1295 2.1295 0 0 1-2.2676-0.29566l1.3661-1.6336z" fill="#877d3b"/> <path transform="rotate(10.78 -162.56 77.832)" d="m-162.35 77.873c0.61454-0.54128 1.3277-0.97024 2.0939-1.2595 0.65732-0.24812 1.3533-0.39356 2.055-0.42945" fill="none"/> <path transform="matrix(-.99832 -.057914 -.057914 .99832 -319.51 -8.6127)" d="m-162.35 77.873c0.61454-0.54128 1.3277-0.97024 2.0939-1.2595 0.65732-0.24812 1.3533-0.39356 2.055-0.42945" fill="none"/> </g> <g transform="matrix(.53016 .11784 -.11628 .53724 283.76 111.05)" stroke="#877d3b" stroke-linecap="round" stroke-linejoin="round" stroke-width=".50333"> <path transform="rotate(205.89)" d="m114.21-140.98a2.1295 2.1295 0 0 1-1.2279 1.9292 2.1295 2.1295 0 0 1-2.2676-0.29566l1.3661-1.6336z" fill="#877d3b"/> <path transform="rotate(10.78 -162.56 77.832)" d="m-162.35 77.873c0.61454-0.54128 1.3277-0.97024 2.0939-1.2595 0.65732-0.24812 1.3533-0.39356 2.055-0.42945" fill="none"/> <path transform="matrix(-.99832 -.057914 -.057914 .99832 -319.51 -8.6127)" d="m-162.35 77.873c0.61454-0.54128 1.3277-0.97024 2.0939-1.2595 0.65732-0.24812 1.3533-0.39356 2.055-0.42945" fill="none"/> </g> <g transform="matrix(.54276 0 0 .55001 294.69 91.142)" stroke="#877d3b" stroke-linecap="round" stroke-linejoin="round" stroke-width=".50333"> <path transform="rotate(205.89)" d="m114.21-140.98a2.1295 2.1295 0 0 1-1.2279 1.9292 2.1295 2.1295 0 0 1-2.2676-0.29566l1.3661-1.6336z" fill="#877d3b"/> <path transform="rotate(10.78 -162.56 77.832)" d="m-162.35 77.873c0.61454-0.54128 1.3277-0.97024 2.0939-1.2595 0.65732-0.24812 1.3533-0.39356 2.055-0.42945" fill="none"/> <path transform="matrix(-.99832 -.057914 -.057914 .99832 -319.51 -8.6127)" d="m-162.35 77.873c0.61454-0.54128 1.3277-0.97024 2.0939-1.2595 0.65732-0.24812 1.3533-0.39356 2.055-0.42945" fill="none"/> </g> <g transform="matrix(.54024 .052917 -.052219 .54746 290.76 97.178)" stroke="#877d3b" stroke-linecap="round" stroke-linejoin="round" stroke-width=".50333"> <path transform="rotate(205.89)" d="m114.21-140.98a2.1295 2.1295 0 0 1-1.2279 1.9292 2.1295 2.1295 0 0 1-2.2676-0.29566l1.3661-1.6336z" fill="#877d3b"/> <path transform="rotate(10.78 -162.56 77.832)" d="m-162.35 77.873c0.61454-0.54128 1.3277-0.97024 2.0939-1.2595 0.65732-0.24812 1.3533-0.39356 2.055-0.42945" fill="none"/> <path transform="matrix(-.99832 -.057914 -.057914 .99832 -319.51 -8.6127)" d="m-162.35 77.873c0.61454-0.54128 1.3277-0.97024 2.0939-1.2595 0.65732-0.24812 1.3533-0.39356 2.055-0.42945" fill="none"/> </g> <g transform="matrix(.53695 -.080245 .079187 .54413 297.21 75.544)" stroke="#877d3b" stroke-linecap="round" stroke-linejoin="round" stroke-width=".50333"> <path transform="rotate(205.89)" d="m114.21-140.98a2.1295 2.1295 0 0 1-1.2279 1.9292 2.1295 2.1295 0 0 1-2.2676-0.29566l1.3661-1.6336z" fill="#877d3b"/> <path transform="rotate(10.78 -162.56 77.832)" d="m-162.35 77.873c0.61454-0.54128 1.3277-0.97024 2.0939-1.2595 0.65732-0.24812 1.3533-0.39356 2.055-0.42945" fill="none"/> <path transform="matrix(-.99832 -.057914 -.057914 .99832 -319.51 -8.6127)" d="m-162.35 77.873c0.61454-0.54128 1.3277-0.97024 2.0939-1.2595 0.65732-0.24812 1.3533-0.39356 2.055-0.42945" fill="none"/> </g> <path d="m187.4 150.42 39.396 0.33533c0.99544 5.5618-0.4963 8.3556-2.2888 11.674l-2.6002-0.0458s1.5151-4.1938-0.43855-6.1079c-3.148-3.0842-9.9778-2.5188-15.152-2.544-5.1587-0.0251-11.97-0.59691-15.258 2.389-2.0996 1.9066-0.5524 6.3087-0.5524 6.3087h-2.4094c-1.0963-3.635-3.8228-6.2116-0.697-12.009z" fill="#260f00"/> <path d="m181.5 153.48 50.006 0.42564c1.2635 7.0598-0.62997 10.606-2.9053 14.818l-3.3006-0.0581s1.9232-5.3234-0.55666-7.753c-3.9959-3.9149-12.665-3.1971-19.232-3.2292-6.5481-0.0319-15.193-0.75767-19.367 3.0324-2.6651 2.4201-0.70118 8.0078-0.70118 8.0078h-3.0584c-1.3916-4.6141-4.8524-7.8846-0.88473-15.243z" fill="#520"/> <path d="m180.1 133.43c15.285 3.8467 32.79 5.7 52.773 0.17957 4.2034 6.163 2.5996 11.887 0 15.288-18.398 5.625-36.772 5.493-52.702 0-4.5815-6.256-2.3683-11.935-0.0702-15.468z" fill="url(#q)"/> <path d="m180.17 148.9c17.316 3.0496 34.885 3.3296 52.678-0.0877 0.4944 1.7285 0.16543 3.1389-1.255 5.3336-12.585 1.8363-34.388 3.4024-50.177-0.26458-1.1142-1.7396-1.5103-3.2418-1.2465-4.9814z" fill="url(#p)"/> </g> <path d="m291.6 106.35h-14.282c-3.5106 0-5.637 7.4675-5.2068 9.8565l2.698 14.983c6.573 2.7399 13.872 1.8223 19.267-0.1323l3.663-15.201c0.56866-2.3598-2.6282-9.507-6.1387-9.507z" fill="#1a1a1a" stroke-linecap="round" stroke-linejoin="round" stroke-width=".28044"/> <g transform="translate(188.58 51.636)"> <path d="m101.9 37.97c0.35318-0.33298 0.56107-0.6637 1.1513-0.46932 0.62864 0.20703 0.81272 0.20271 0.99092 0.30178 3.1971 4.2247 5.4291 9.603 6.5785 14.833 0.13806 0.62818-4.3319 0.50946-4.5173 0.29534l-3.9652-10.165c-0.56727-1.4543-1.5091-3.5969-0.23817-4.7952z" fill="#008066" stroke-linecap="round" stroke-linejoin="round" stroke-width=".52628"/> <path d="m90.048 37.319c-1.1719 0.18854-2.1406 0.55873-2.8553 0.94607-2.8366 4.3887-4.1692 8.6904-4.9654 13.886-0.01208 0.07877 0.0037 0.29058 0.09587 0.38851 0.47231 0.35554 3.2716 0.56829 4.7847 0.22971l3.073-10.765c0.4521-1.5837 0.39691-2.8307-0.13286-4.6854z" fill="#008066" stroke-linecap="round" stroke-linejoin="round" stroke-width=".52628"/> <path d="m91.13 37.323c-1.4374-0.21034-3.4257 0.54014-3.9144 0.91938-1.0967 3.1068-1.5091 6.6181-2.1586 9.8767 0.0027 1.3467 0.70946 2.5938 1.8637 3.2876v1.7666c0 3.0864 1.5518 2.9612 3.4979 3.287 4.9606 0.83056 7.7697 1.3566 11.156 0 1.7141-0.68663 3.1684-1.4405 3.1684-3.287v-1.7031c1.2187-0.67554 2.4115-2.026 1.9805-3.3511-1.192-3.6643-1.708-7.1211-2.677-10.316-1.3947-0.83591-3.9687-0.77498-4.119-0.49456 0 0-2.5501 6.9497-4.4452 8.3616-2.3894-2.1491-4.3527-8.3473-4.3527-8.3473z" fill="url(#o)" stroke-linecap="round" stroke-linejoin="round" stroke-width=".31798"/> <path d="m86.922 51.411c2.4216 1.2017 4.152 0.92092 5.6103-0.27327-0.79593 1.3586-3.2799 1.6521-5.5958 0.93645z" fill="#008066"/> <path d="m104.74 51.487c-2.4216 1.2017-4.1355 0.90439-5.5938-0.28981 0.79592 1.3586 3.2675 1.6603 5.5834 0.94471z" fill="#008066"/> </g> <path transform="translate(188.59 51.636)" d="m78.217 71.603c2.2269-0.76068 4.4538-1.5214 5.909-1.9182 1.4552-0.39688 2.1387-0.42995 2.701-0.68351 0.56224-0.25356 1.0032-0.7276 1.4001-1.7474 0.39688-1.0197 0.74965-2.5852 1.8852-3.9522 1.1355-1.367 3.0537-2.5356 3.8806-3.9357 0.82682-1.4001 0.56224-3.0317 0.29766-4.6633" fill="none" stroke-width="0"/> <g transform="translate(-49.04 -.5039)"> <path d="m336.34 118.32c-1.9646 4.9974-5.4918 21.36-5.4918 21.36l3.1655 1.2755 10.936-20.81z" fill="#ffc791" stroke-linecap="round" stroke-linejoin="round" stroke-width=".38731"/> <path d="m332.98 117.76c1.9646 4.9974 5.4918 21.36 5.4918 21.36l-3.1655 1.2755-10.936-20.81z" fill="#ffc791" stroke-linecap="round" stroke-linejoin="round" stroke-width=".38731"/> <path d="m332.82 128.34 0.66074-0.0326-1.4912 6.0255z" fill="#c87137" opacity=".28367"/> <path d="m334.81 139.44c1.2518-1.9382 1.8846-2.7066 2.91-3.7348l-0.28597-1.2582z" fill="#c87137" opacity=".28367"/> <g transform="rotate(33.842 346.81 129.16)" stroke-linecap="round" stroke-linejoin="round"> <path d="m344.95 141.83-1.831 2.5962c2.259 2.5696 5.1487 4.8182 5.3049 1.809 0 0 2.7315-7.5622 0.37198-7.1674-1.4713 0.2462-0.76603 1.0192-2.1256 2.7386-0.82449 1.0428-1.326-0.10799-1.7203 0.0235z" fill="#ffc791" stroke-width=".62613"/> <g transform="rotate(-44.15 321.9 72.526)"> <path d="m295.9 139.94c-0.64651 0.67311-1.2319 0.53844-2.6619 0.40061-1.0977-0.1058-2.0079-0.32079-2.6456-0.72676-0.23007-0.14645-2.7587 2.9675-3.7308 3.8603-0.0321 5e-3 7e-3 -0.40411 0.0271-0.47046 0.0358-0.11573 2.8403-4.234 2.8818-4.3135 2.12-4.0623 5.4698-4.5805 6.8056-3.3621 1.4411 1.3145 0.62622 3.256-0.67614 4.6119z" fill="#c87137" stroke-width=".62613"/> <path d="m286.86 143.26c8e-3 -0.0542 5.7896-9.8637 9.5658-6.5861 2.0227 1.7556-2.7623 6.2568-6.4798 8.6755-2.0249 1.3174-3.3654-0.0981-3.086-2.0893z" stroke-width=".82323"/> <path d="m286.86 143.26c-0.0343-0.0896-0.0107-0.35437 0.10004-0.67697 0.41194-1.1999 2.3204-3.3656 3.1465-5.1661 0.41274-0.89957 0.94168-1.0759 1.3798-1.0825-0.13566 0.17362-0.41793 0.34872-0.38342 0.51898-8e-3 0.36334-0.0495 0.49871-0.0247 1.023z" fill="#a05a2c" stroke-width=".62613"/> </g> </g> <g transform="matrix(-1 0 0 1 669.34 .77008)"> <g transform="rotate(33.842 346.81 129.16)" stroke-linecap="round" stroke-linejoin="round"> <path d="m344.95 141.83-1.831 2.5962c2.259 2.5696 5.1487 4.8182 5.3049 1.809 0 0 2.7315-7.5622 0.37198-7.1674-1.4713 0.2462-0.76603 1.0192-2.1256 2.7386-0.82449 1.0428-1.326-0.10799-1.7203 0.0235z" fill="#ffc791" stroke-width=".62613"/> <g transform="rotate(-44.15 321.9 72.526)"> <path d="m295.9 139.94c-0.64651 0.67311-1.2319 0.53844-2.6619 0.40061-1.0977-0.1058-2.0079-0.32079-2.6456-0.72676-0.23007-0.14645-2.7587 2.9675-3.7308 3.8603-0.0321 5e-3 7e-3 -0.40411 0.0271-0.47046 0.0358-0.11573 2.8403-4.234 2.8818-4.3135 2.12-4.0623 5.4698-4.5805 6.8056-3.3621 1.4411 1.3145 0.62622 3.256-0.67614 4.6119z" fill="#c87137" stroke-width=".62613"/> <path d="m286.86 143.26c8e-3 -0.0542 5.7896-9.8637 9.5658-6.5861 2.0227 1.7556-2.7623 6.2568-6.4798 8.6755-2.0249 1.3174-3.3654-0.0981-3.086-2.0893z" stroke-width=".82323"/> <path d="m286.86 143.26c-0.0343-0.0896-0.0107-0.35437 0.10004-0.67697 0.41194-1.1999 2.3204-3.3656 3.1465-5.1661 0.41274-0.89957 0.94168-1.0759 1.3798-1.0825-0.13566 0.17362-0.41793 0.34872-0.38342 0.51898-8e-3 0.36334-0.0495 0.49871-0.0247 1.023z" fill="#a05a2c" stroke-width=".62613"/> </g> </g> </g> </g> <g transform="matrix(-1 0 0 1 380.7 51.169)" stroke-linecap="round" stroke-linejoin="round"> <path d="m90.519 61.045c2.4553 1.1312 7.5888 1.0973 9.6049 0.42115-2.6383 0.45453-7.2402 0.14789-9.6049-0.42115z" fill="#1c3a66" stroke-width=".28044"/> <g transform="matrix(.62613 0 0 .62613 19.818 -2.7473)"> <path d="m114.35 127.9c4.7266-1.7411 8.8018-1.836 15.758 0.13576 0 0-5.5405-0.47061-8.8238-0.52602-2.5604-0.0432-6.9345 0.39026-6.9345 0.39026z" fill="#c87137" opacity=".2063" stroke-width=".94958"/> <path d="m110.65 92.52h22.81c5.6068 0 9.0207 11.93 8.3159 15.742l-4.4146 23.877c-7.5608-5.0653-19.532-8.5999-30.718-0.36975l-5.7974-24.066c-0.90793-3.769 4.1975-15.184 9.8042-15.184z" fill="url(#n)" stroke-width=".44789"/> </g> <path d="m102.09 66.303c-3.5759-1.3708-9.7123-0.96359-12.537-0.40262 3.5521-0.28734 8.9837-0.37516 12.537 0.40262z" fill="#333" stroke-width=".35864"/> <path d="m90.52 61.573c2.4898 0.44485 7.6196 0.3622 9.6134 0.04996-2.6226 0.227-7.2319 0.1588-9.6134-0.04996z" fill="#333" stroke-width=".18225"/> <path d="m90.665 62.126c2.4898 0.91284 7.6196 0.74326 9.6134 0.10253-2.6226 0.46581-7.2319 0.32587-9.6134-0.10253z" fill="#333" stroke-width=".26108"/> </g> <path d="m275.39 105.11c3.2839-1.7442 4.994-2.4425 4.994-2.4425s0.89656 1.4341 1.3339 1.5942c-1.2152 0.36974-4.4581 4.7628-8.9343 4.7476-0.88173-0.0789-1.1161 0.024-1.1102-1.3471-0.0937-0.91767-0.52103-3.1748-0.46153-3.6259 1.9609-0.25215 3.1132 0.10555 4.0312 0.25789z" fill="url(#m)" stroke-linecap="round" stroke-linejoin="round" stroke-width=".28044"/> <path d="m295.4 106.84c-2.9353-0.69038-7.425-0.65724-7.425-0.65724s-0.0106 0.85356 3e-3 1.1529c-0.1142 1.0272 6.0941 2.5648 10.574 2.511 0.88095 0.21385 1.8378 0.0616 1.504-1.1993 0.0426-0.92145-0.97422-3.8545-1.0587-4.3016-1.7721-0.36754-3.2103-0.1443-4.1411 0.0846z" fill="url(#l)" stroke-linecap="round" stroke-linejoin="round" stroke-width=".28044"/> <g transform="translate(-48.478 -13.543)"> <g transform="matrix(.57183 -.153 .153 .57183 120.38 99.446)"> <path d="m351.25 136.93-1.5644-0.90817c-3.8654 1.7219-7.6776 3.727-11.902 3.5326l-0.86198 0.68172c-2.8398-0.52483-5.6797-1.1454-8.5195-3.6269l-0.23124 0.36182c-0.41516 0.76114-5.7717-6.7896-4.0501-8.4246 0.9359-0.88885 2.5862-1.7971 4.0756-2.4466 2.7579-1.2027 5.7147-3.9342 9.9413-3.9342 4.6289 0 12.864 2.0886 13.098 3.0631l0.90672-0.32795c2.1986 1.0197 0.16695 11.609-0.89223 12.029z" fill="#f9f9f9" stroke-linecap="round" stroke-linejoin="round" stroke-width=".051836"/> <path d="m338.14 122.17c-6.0311 2e-5 -10.92 2.0154-10.92 4.5015v1.1906c6e-5 2.4861 4.8892 4.5015 10.92 4.5015 6.0311-2e-5 10.92-2.0154 10.92-4.5015v-1.1906c-6e-5 -2.4861-4.8892-4.5015-10.92-4.5015z" fill="#e9ddaf" stroke-linecap="round" stroke-linejoin="round" stroke-width=".032679"/> <ellipse cx="338.14" cy="126.69" rx="10.353" ry="4.2677" fill="#f9f9f9"/> <path d="m346.8 131.96c0.82516 0.83983 4.4412 4.9323 4.4412 4.9323s-1.2248-0.69068-1.5638-0.90565c-0.23031-0.14604-2.8773-4.0266-2.8773-4.0266z" fill="#e6e6e6"/> <path d="m337.72 139.51s1.2141-7.2223 1.08-6.844c-0.13191 0.37266-1.7518 7.5202-1.7518 7.5202-0.16031-0.0125 0.41481-0.54457 0.67182-0.67629z" fill="#e6e6e6"/> <path d="m328.87 136.94s1.5448-5.2876 1.4107-4.9092c-0.13191 0.37266-1.8345 4.5602-1.8345 4.5602z" fill="#e6e6e6"/> <path d="m350.68 124.85s-2.2219 0.83558-1.8359 0.72534c0.38008-0.1087 2.3322-0.36779 2.3322-0.36779-0.13556-0.12914-0.17946-0.28883-0.49628-0.35755z" fill="#e6e6e6"/> </g> <g transform="matrix(.57363 -.16063 0 .57363 171.39 105.19)" stroke-width="1.7433"> <path d="m285.46 103.06c-6e-3 -1e-5 -0.0113 1e-3 -0.0165 3e-3 -0.0116 5e-3 -0.0208 0.0137-0.0253 0.0253-9e-3 0.0231 2e-3 0.0493 0.0253 0.0584l0.0449 0.0196 0.0527 0.0253 0.0155 0.01c0.0209 0.0137 0.049 8e-3 0.0625-0.0134 0.0137-0.0209 8e-3 -0.0491-0.0134-0.0625l-0.0196-0.0119c-6.6e-4 -7.1e-4 -1e-3 -1e-3 -2e-3 -2e-3l-0.0563-0.0269c-6.7e-4 -7.1e-4 -1e-3 -1e-3 -2e-3 -2e-3l-0.0491-0.0196c-5e-3 -2e-3 -0.0109-3e-3 -0.0165-3e-3zm-0.92811 0.11576-5.1e-4 5.1e-4 -0.01 8e-3c-7.1e-4 6.6e-4 -1e-3 1e-3 -2e-3 2e-3l-0.0429 0.0372c-7.6e-4 1e-3 -1e-3 3e-3 -2e-3 4e-3l-0.0372 0.0408c-7.6e-4 1e-3 -1e-3 3e-3 -2e-3 4e-3l-8e-3 0.01c-0.0144 0.02-0.01 0.0479 0.01 0.0625 0.0204 0.0159 0.0499 0.0114 0.0646-0.01l4e-3 -0.0103 0.0336-0.0351 0.0388-0.0351 8e-3 -6e-3c0.0496-0.035-7e-3 -0.10986-0.0543-0.0723zm1.1658 0.0248c-0.0161-3e-3 -0.0328 2e-3 -0.0434 0.015-0.0158 0.0185-0.0139 0.0462 4e-3 0.0625l0.0119 0.0114 0.0331 0.0351 0.0274 0.0393 4e-3 6e-3c0.0115 0.0222 0.0389 0.0308 0.061 0.0191 0.0213-0.012 0.0291-0.0389 0.0176-0.0605l-4e-3 -0.01-4e-3 -4e-3 -0.0289-0.0429-4e-3 -4e-3 -0.0351-0.0408-4e-3 -4e-3 -0.0134-0.0114c-6e-3 -5e-3 -0.0133-9e-3 -0.0212-0.0108zm-1.3033 0.18035c-0.016 3e-3 -0.0292 0.0141-0.0346 0.0295l-2e-3 6e-3c-8.1e-4 2e-3 -1e-3 4e-3 -2e-3 6e-3l-0.0119 0.0491c-1.4e-4 2e-3 -1.4e-4 4e-3 0 6e-3l-4e-3 0.0506c-1.2e-4 2e-3 -1.2e-4 4e-3 0 6e-3l2e-3 0.0294c2e-3 0.0249 0.0242 0.0432 0.0491 0.0408 0.0247-2e-3 0.0429-0.0239 0.0408-0.0486l-2e-3 -0.0233 4e-3 -0.045 8e-3 -0.0408 2e-3 -4e-3c9e-3 -0.0233-2e-3 -0.0498-0.0253-0.0589v-5.2e-4c-8e-3 -3e-3 -0.0158-4e-3 -0.0238-2e-3zm1.4159 0.0486 5.2e-4 5.2e-4c-0.0252 5e-3 -0.0412 0.0298-0.0351 0.0548l2e-3 2e-3 4e-3 0.0408v6e-3l-4e-3 0.0408-0.01 0.0429-0.0119 0.0295c-9e-3 0.0238 3e-3 0.0506 0.0274 0.0589 0.0232 8e-3 0.0485-4e-3 0.0568-0.0274l0.0134-0.0336v-0.00103l5.2e-4 -5.2e-4v-0.00258l-5.2e-4 -5.2e-4v-0.00104l0.0119-0.0491c8.1e-4 -2e-3 2e-3 -4e-3 2e-3 -6e-3l2e-3 -0.0512v-0.00569l-2e-3 -0.0506c-5.4e-4 -2e-3 -1e-3 -4e-3 -2e-3 -6e-3l-2e-3 -6e-3c-5e-3 -0.0242-0.0285-0.0399-0.0527-0.0351zm0.56482 0.14314-0.047 2e-3c-0.0246 1e-3 -0.0437 0.0219-0.0429 0.0465 8.6e-4 0.025 0.022 0.0446 0.047 0.0434l0.045-2e-3h0.0858c0.0243 1e-3 0.0451-0.0171 0.047-0.0413 2e-3 -0.0256-0.0177-0.0477-0.0434-0.0486h-0.0114c-6.9e-4 -2e-5 -1e-3 -2e-5 -2e-3 0h-0.0765c-5.2e-4 -1e-5 -1e-3 -1e-5 -2e-3 0zm0.23048 0.0134c-0.0249-3e-3 -0.0477 0.0143-0.0506 0.0393-3e-3 0.0247 0.014 0.0474 0.0387 0.0506l0.0687 0.0119 0.0584 0.0134c0.0236 6e-3 0.048-8e-3 0.0548-0.031 6e-3 -0.0243-9e-3 -0.0489-0.0331-0.0548l-0.0605-0.0155c-6.9e-4 -2e-5 -1e-3 -2e-5 -2e-3 0l-0.0703-0.0139c-1e-3 -6e-5 -3e-3 -6e-5 -4e-3 0zm-0.41806 4e-3 -0.0507 8e-3c-1e-3 4.5e-4 -3e-3 9.7e-4 -4e-3 2e-3l-0.0739 0.0176c-1e-3 -6e-5 -3e-3 -6e-5 -4e-3 0l-4e-3 2e-3c-0.0229 7e-3 -0.0359 0.0316-0.0294 0.0548 7e-3 0.0237 0.031 0.0378 0.0548 0.0315l4e-3 -2e-3 0.0724-0.016 0.0506-0.01c0.0241-4e-3 0.0406-0.0265 0.0372-0.0506-4e-3 -0.025-0.0278-0.0419-0.0527-0.0372zm-2.3399 2e-3 -0.0739 6e-3c-1e-3 -6e-5 -3e-3 -6e-5 -4e-3 0l-0.0486 6e-3c-0.024 3e-3 -0.0414 0.0245-0.0393 0.0486 2e-3 0.0258 0.025 0.0447 0.0506 0.0413l0.047-6e-3 0.0724-6e-3h0.01c0.0248-2e-5 0.0449-0.0201 0.045-0.045-3.1e-4 -0.0246-0.0203-0.0444-0.045-0.0444h-0.0114c-6.9e-4 -2e-5 -1e-3 -2e-5 -2e-3 0zm0.15038 4e-3c-0.0248-8.5e-4 -0.0456 0.0186-0.0465 0.0434-8.5e-4 0.0246 0.0183 0.0454 0.0429 0.0465h6e-3l0.0765 8e-3 0.047 8e-3c5e-3 0 9e-3 -7e-4 0.0134-2e-3 3e-3 3e-3 7e-3 6e-3 0.0119 8e-3l0.0739 0.0176 0.0548 0.0155c0.0232 6e-3 0.0473-7e-3 0.0548-0.0295 7e-3 -0.0237-6e-3 -0.0489-0.0295-0.0563l-0.0548-0.0176c-5.2e-4 -1e-5 -1e-3 -1e-5 -2e-3 0l-0.0765-0.0176c-5e-3 -2.2e-4 -0.0105 4.8e-4 -0.0155 2e-3 -5e-3 -4e-3 -0.0112-7e-3 -0.0176-8e-3l-0.047-8e-3c-1e-3 -6e-5 -3e-3 -6e-5 -4e-3 0l-0.076-0.0103c-1e-3 -6e-5 -3e-3 -6e-5 -4e-3 0zm-0.41393 0.0336-0.031 8e-3c-6.9e-4 -2e-5 -1e-3 -2e-5 -2e-3 0l-0.0646 0.0217c-6.9e-4 -2e-5 -1e-3 -2e-5 -2e-3 0l-0.0351 0.0134c-0.0234 9e-3 -0.0348 0.0357-0.0253 0.0589 9e-3 0.0231 0.0353 0.0345 0.0584 0.0253l0.0336-0.0119 0.0605-0.0196 0.0289-8e-3c0.0246-6e-3 0.0397-0.0303 0.0336-0.0548-6e-3 -0.0243-0.0305-0.0392-0.0548-0.0331zm0.84077 0.0145c-8e-3 -2.2e-4 -0.0154 2e-3 -0.0222 5e-3 -0.0221 0.0113-0.0309 0.0383-0.0196 0.0605l3e-3 5e-3h-5.2e-4c-4e-3 4e-3 -8e-3 9e-3 -0.0103 0.014-0.01 0.0221-6.1e-4 0.0482 0.0212 0.0589l0.0176 8e-3 0.0465 0.0258 7e-3 8e-3c6e-3 6e-3 0.0144 0.0107 0.0233 0.0124l0.0155 0.0109c0.0206 0.014 0.0485 9e-3 0.0625-0.0119 0.014-0.0206 9e-3 -0.0486-0.0119-0.0625l-0.0382-0.0279-0.0124-0.0129-0.0274-0.0388-0.0155-0.0315c-8e-3 -0.0138-0.0224-0.0224-0.0382-0.0227zm2.4272 0.014c-0.016 2e-3 -0.0297 0.0129-0.0357 0.0279-9e-3 0.0233 2e-3 0.0498 0.0253 0.0589l4e-3 2e-3 0.0527 0.0258 0.047 0.0289 4e-3 4e-3c0.0199 0.0141 0.0474 0.01 0.062-0.01 0.0149-0.0195 0.0114-0.0473-8e-3 -0.0625l-6e-3 -6e-3c-1e-3 -7.5e-4 -2e-3 -1e-3 -4e-3 -2e-3l-0.0512-0.031c-1e-3 -7.5e-4 -2e-3 -1e-3 -4e-3 -2e-3l-0.0568-0.0274c-6.9e-4 -2e-5 -1e-3 -2e-5 -2e-3 0l-5e-3 -4e-3c-7e-3 -3e-3 -0.0154-4e-3 -0.0232-3e-3zm-0.90848 3e-3c-8e-3 -1e-3 -0.0162-7.5e-4 -0.0238 2e-3l-4e-3 2e-3c-1e-3 6.2e-4 -3e-3 1e-3 -4e-3 2e-3l-0.0605 0.0274c-1e-3 4.5e-4 -3e-3 9.7e-4 -4e-3 2e-3l-0.0548 0.0315c-0.0125 7e-3 -0.0206 0.0206-0.0217 0.0351-2e-3 -8e-3 -7e-3 -0.0143-0.0129-0.0196h-5.2e-4c-0.0188-0.0168-0.0476-0.0149-0.0641 4e-3l-0.0233 0.0269-0.0372 0.0357-0.0315 0.0212c-0.0212 0.0147-0.0257 0.0442-0.01 0.0646 3e-3 3e-3 7e-3 5e-3 0.0103 7e-3l-0.016 0.0258c-0.0137 0.0209-8e-3 0.049 0.0134 0.0625 0.0215 0.0133 0.0497 6e-3 0.0625-0.0155l0.0217-0.0331 0.0295-0.0372 0.0269-0.0253c0.0153-0.0148 0.0181-0.0383 7e-3 -0.0563l0.015-0.016c7e-3 -8e-3 0.0112-0.0172 0.0119-0.0274 2.9e-4 3e-3 8.1e-4 5e-3 2e-3 8e-3 0.0121 0.0226 0.0405 0.0306 0.0625 0.0176l0.0527-0.0295 0.0589-0.0269h2e-3c0.0242-8e-3 0.0367-0.0351 0.0274-0.0589-5e-3 -0.0154-0.0186-0.0266-0.0346-0.0295zm-2.604 0.0708c-6e-3 7.3e-4 -0.0118 3e-3 -0.0171 6e-3l-0.0119 8e-3 -4e-3 4e-3 -0.047 0.0331c-1e-3 1e-3 -2e-3 3e-3 -4e-3 4e-3l-0.0393 0.0372c-1e-3 1e-3 -3e-3 2e-3 -4e-3 4e-3l-6e-3 6e-3c-0.0168 0.0192-0.0142 0.0486 6e-3 0.0646 0.0194 0.0166 0.0487 0.0138 0.0646-6e-3l2e-3 -6e-3 0.0372-0.0336 0.0408-0.031 0.0119-6e-3c0.0218-0.0128 0.0288-0.041 0.0155-0.0625-6e-3 -0.01-0.0162-0.0165-0.0274-0.0191l5.2e-4 -5.2e-4c-6e-3 -2e-3 -0.012-2e-3 -0.0181-2e-3zm3.7284 0.0827c-8e-3 1e-3 -0.0155 5e-3 -0.0217 0.0103l5.2e-4 5.1e-4c-0.0185 0.0159-0.0211 0.0436-6e-3 0.0625l0.0114 0.0134 0.0233 0.0372 0.016 0.0388 4e-3 0.0103c6e-3 0.0233 0.0291 0.0379 0.0527 0.0331 0.0236-6e-3 0.0384-0.029 0.0336-0.0527l-4e-3 -0.0155c-4.3e-4 -3e-3 -1e-3 -6e-3 -2e-3 -8e-3l-0.0176-0.0429c-1e-3 -3e-3 -3e-3 -5e-3 -4e-3 -8e-3l-0.0274-0.0413c-1e-3 -2e-3 -2e-3 -4e-3 -4e-3 -6e-3l-0.0119-0.0155c-0.0102-0.0129-0.0266-0.0193-0.0429-0.0165zm-2.4614 0.0248c-0.0163-7.6e-4 -0.0317 7e-3 -0.0403 0.0212-0.0133 0.0215-6e-3 0.0497 0.0155 0.0625l0.0145 9e-3c3.2e-4 8.7e-4 6.6e-4 2e-3 1e-3 3e-3l0.0217 0.0274 0.0232 0.0372 0.0176 0.0393c0.01 0.0235 0.0374 0.034 0.0605 0.0233 0.0229-0.0105 0.0327-0.0378 0.0217-0.0605l-5e-3 -0.0119c0.0127-4e-3 0.023-0.0128 0.0284-0.0248 9e-3 -0.0233-2e-3 -0.0498-0.0253-0.0589l-0.0196-8e-3 -0.0527-0.0274-0.0393-0.0238c-7e-3 -4e-3 -0.0143-7e-3 -0.0222-7e-3zm0.90176 0.0522c-6e-3 3.7e-4 -0.011 2e-3 -0.016 4e-3l-4e-3 2e-3 -0.0568 0.0233-0.0605 0.0196c-0.0235 8e-3 -0.0364 0.0328-0.0289 0.0563 7e-3 0.0248 0.0341 0.0382 0.0584 0.0294l0.0625-0.0217c6.9e-4 2e-5 1e-3 2e-5 2e-3 0l0.0605-0.0253c7.1e-4 -6.7e-4 1e-3 -1e-3 2e-3 -2e-3l4e-3 -2e-3c0.0227-0.0107 0.0322-0.0379 0.0212-0.0605-6e-3 -0.0104-0.0158-0.0181-0.0274-0.0212-5e-3 -2e-3 -0.0113-2e-3 -0.017-2e-3zm-2.342 0.0398c-0.0158 2e-3 -0.0294 0.0122-0.0356 0.0269l-4e-3 8e-3c-6.6e-4 2e-3 -1e-3 4e-3 -2e-3 6e-3l-0.0119 0.0445c-2.5e-4 3e-3 -2.5e-4 6e-3 0 8e-3l-4e-3 0.045c-2.2e-4 3e-3 -2.2e-4 5e-3 0 8e-3l4e-3 0.0372c3e-3 0.0249 0.0258 0.0426 0.0506 0.0393 0.0242-3e-3 0.0417-0.0248 0.0393-0.0491l-4e-3 -0.0331 4e-3 -0.0372 8e-3 -0.0367 2e-3 -4e-3c0.01-0.0227-6.6e-4 -0.049-0.0232-0.0589v-5.2e-4c-7e-3 -3e-3 -0.0154-4e-3 -0.0233-3e-3zm1.6971 0.015c-0.0243-6e-3 -0.0489 9e-3 -0.0548 0.0331-6e-3 0.0236 7e-3 0.048 0.031 0.0548l0.0393 0.01-0.0217 8e-3c-7.1e-4 6.6e-4 -1e-3 1e-3 -2e-3 2e-3l-0.0331 0.0155c-1e-3 6.2e-4 -3e-3 1e-3 -4e-3 2e-3l-0.031 0.0155c-7.1e-4 6.6e-4 -1e-3 1e-3 -2e-3 2e-3l-4e-3 2e-3c-0.0204 0.0141-0.0254 0.0421-0.0114 0.0625 0.014 0.0205 0.042 0.0259 0.0625 0.0119h2e-3l0.0269-0.016 0.0295-0.0134 0.0331-0.0119 0.0196-6e-3c0.0239-7e-3 0.0372-0.033 0.0294-0.0568-3.2e-4 -8.7e-4 -6.6e-4 -2e-3 -1e-3 -3e-3l9e-3 1e-3c0.0145 9.1e-4 0.0286-5e-3 0.0377-0.0165-7.4e-4 3e-3 -1e-3 7e-3 -1e-3 0.0103 2e-3 0.0246 0.0239 0.0429 0.0486 0.0408h8e-3l0.0408-2e-3 0.0408 2e-3 0.0372 4e-3c0.0243 2e-3 0.0456-0.0161 0.0481-0.0403l0.0129-1e-3c1e-3 -6.3e-4 2e-3 -1e-3 4e-3 -2e-3h4e-3c0.0242-5e-3 0.0399-0.0285 0.0351-0.0527-5e-3 -0.0232-0.0271-0.0386-0.0506-0.0351h-2e-3l-0.0687 6e-3 -0.0584 2e-3c-0.0175 1e-3 -0.0328 0.0121-0.0393 0.0284l-8e-3 5.2e-4c-1e-3 -6e-5 -3e-3 -6e-5 -4e-3 0h-8e-3c-0.0114 1e-3 -0.0219 6e-3 -0.0295 0.015 1.8e-4 -3.4e-4 3.5e-4 -6.9e-4 5.2e-4 -1e-3 2e-3 -0.0247-0.0162-0.0464-0.0408-0.0486l-0.0217-2e-3 -0.0661-0.0119zm0.72657 0.0899c-0.0241-2e-3 -0.0459 0.0147-0.0491 0.0388l-2e-3 8e-3c-2.2e-4 3e-3 -2.2e-4 5e-3 0 8e-3l4e-3 0.045c-2.5e-4 3e-3 -2.5e-4 6e-3 0 8e-3l0.0119 0.0429c4.5e-4 3e-3 1e-3 5e-3 2e-3 8e-3l0.0109 0.0243c-0.0123-0.0155-0.0333-0.0212-0.0517-0.0139l-5.2e-4 1e-3c-0.0243 9e-3 -0.0359 0.0368-0.0253 0.0605l6e-3 0.01 4e-3 0.0196 2e-3 0.0176v8e-3l-2e-3 0.016-4e-3 0.0191-8e-3 0.0196-0.0119 0.0196-0.0134 0.0176c-0.0149 0.0195-0.0114 0.0473 8e-3 0.0625 9e-3 7e-3 0.0205 0.0108 0.032 0.01l-0.0517 0.0191c-1e-3 6.2e-4 -3e-3 1e-3 -4e-3 2e-3l-0.0103 6e-3c-1e-3 -4e-3 -3e-3 -8e-3 -5e-3 -0.0114-0.012-0.0213-0.0389-0.0291-0.0605-0.0176l-2e-3 -5.2e-4 -0.0295 0.016-0.0331 0.0114-0.0357 0.0103-0.0155 4e-3c-0.0243 6e-3 -0.0392 0.0305-0.0331 0.0548 6e-3 0.0243 0.0305 0.0392 0.0548 0.0331l8e-3 -2e-3c-7.1e-4 6.7e-4 -1e-3 1e-3 -2e-3 2e-3l-0.0372 0.0372c-1e-3 1e-3 -2e-3 3e-3 -4e-3 4e-3l-0.0315 0.0393c-2e-3 2e-3 -3e-3 4e-3 -4e-3 6e-3l-4e-3 8e-3c-0.0133 0.0215-6e-3 0.0497 0.0155 0.0625 0.0212 0.0118 0.0479 5e-3 0.0605-0.016l4e-3 -6e-3 0.0269-0.0351 0.0357-0.0351 0.0134-0.0119c0.0194-0.0151 0.023-0.0429 8e-3 -0.0625-4e-3 -6e-3 -0.0101-0.01-0.0165-0.0129l0.0222-9e-3c1e-3 6e-5 3e-3 6e-5 4e-3 0l0.0269-0.0129c2.4e-4 4e-3 9.4e-4 7e-3 2e-3 0.0109 0.0115 0.0219 0.0385 0.0304 0.0605 0.0191l0.0196-0.01 0.0584-0.0232 0.0393-0.014c0.0235-7e-3 0.0373-0.0311 0.031-0.0548-7e-3 -0.0243-0.0322-0.0383-0.0563-0.031l-0.0336 0.0114c4e-3 -3e-3 7e-3 -6e-3 0.0103-9e-3l0.014-0.0191c1e-3 -1e-3 2e-3 -3e-3 4e-3 -4e-3l0.0139-0.0253c2e-3 -2e-3 3e-3 -4e-3 4e-3 -6e-3l0.01-0.0253c8.4e-4 -2e-3 2e-3 -4e-3 2e-3 -6e-3l8e-3 -0.0269v-0.00207c1.7e-4 -1.7e-4 3.5e-4 -3.4e-4 5.2e-4 -5.1e-4v-0.00155l-5.2e-4 -5.2e-4v-0.00155l2e-3 -0.0274v-0.00775l-2e-3 -0.0274c1.8e-4 -5.1e-4 3.6e-4 -1e-3 5.2e-4 -2e-3v-0.00413c1e-5 -5.2e-4 1e-5 -1e-3 0-2e-3l-5.2e-4 -5.2e-4v-5.2e-4l-8e-3 -0.0253c-4.2e-4 -3e-3 -1e-3 -6e-3 -2e-3 -8e-3l-4e-3 -8e-3c0.0115 0.0178 0.0339 0.0251 0.0537 0.0176 0.0226-0.01 0.033-0.0362 0.0233-0.0589l-0.0134-0.031-8e-3 -0.0372-4e-3 -0.0372 2e-3 -4e-3c2e-3 -0.025-0.0163-0.0472-0.0413-0.0491zm-0.26304 3e-3c-6e-3 -1e-5 -0.0113 1e-3 -0.0165 3e-3 -0.0108 5e-3 -0.0192 0.0141-0.0233 0.0253-9e-3 0.0233 2e-3 0.0498 0.0253 0.0589l0.0274 0.01 0.0295 0.014 0.0269 0.0155 0.0258 0.0176c0.0204 0.0136 0.048 8e-3 0.062-0.0119 0.0141-0.0204 9e-3 -0.0484-0.0114-0.0625l-0.0253-0.0191c-1e-3 -7.6e-4 -3e-3 -1e-3 -4e-3 -2e-3l-0.031-0.0155c-6.7e-4 -7.1e-4 -1e-3 -1e-3 -2e-3 -2e-3l-0.0336-0.0155c-1e-3 -7.5e-4 -2e-3 -1e-3 -4e-3 -2e-3l-0.0295-0.0103c-5e-3 -2e-3 -0.0109-3e-3 -0.0165-3e-3zm1.8014 0.0279c-0.0157 4e-3 -0.0282 0.0159-0.0326 0.0315l-6e-3 0.0258-0.0176 0.0367-0.0233 0.0372-4e-3 4e-3c-0.0162 0.0199-0.0124 0.0494 8e-3 0.0646 0.0195 0.0144 0.047 0.0108 0.062-8e-3l6e-3 -6e-3c2e-3 -2e-3 3e-3 -4e-3 4e-3 -6e-3l0.0253-0.0408c2e-3 -2e-3 3e-3 -4e-3 4e-3 -6e-3l0.0176-0.0429c2e-3 -2e-3 3e-3 -4e-3 4e-3 -6e-3l8e-3 -0.0289c6e-3 -0.0236-7e-3 -0.048-0.031-0.0548l-1e-3 5.2e-4c-8e-3 -2e-3 -0.0159-2e-3 -0.0238-5.2e-4zm-2.4019 0.0413v5.2e-4c-0.0243-6e-3 -0.0489 9e-3 -0.0548 0.0331l-0.01 0.0408-0.0155 0.0372-0.0196 0.0331c-0.0127 0.02-8e-3 0.0464 0.0114 0.0605v1e-3c-2.2e-4 3e-3 -2.2e-4 5e-3 0 8e-3l2e-3 0.0274c5.4e-4 2e-3 1e-3 4e-3 2e-3 6e-3l2e-3 8e-3c6e-3 0.0245 0.0303 0.0397 0.0548 0.0336 0.0235-7e-3 0.0373-0.0311 0.031-0.0548v-4e-3l-2e-3 -0.0196 2e-3 -0.0212 4e-3 -0.0196 0.01-0.0196 6e-3 -0.0114c8e-3 -0.014 8e-3 -0.0311-5.2e-4 -0.045l0.01-0.0388c6e-3 -0.0243-9e-3 -0.0489-0.0331-0.0548zm-1.5188 0.0785c-8e-3 3.2e-4 -0.0159 3e-3 -0.0227 7e-3l5.1e-4 5.1e-4c-0.0211 0.0135-0.0271 0.0416-0.0134 0.0625l8e-3 0.0114c6.2e-4 1e-3 1e-3 3e-3 2e-3 4e-3l0.0331 0.0414c1e-3 5.8e-4 3e-3 1e-3 4e-3 2e-3l0.0372 0.0393c1e-3 1e-3 2e-3 3e-3 4e-3 4e-3l0.0119 0.01c0.0198 0.0163 0.0492 0.0128 0.0646-8e-3 0.0148-0.0196 0.0111-0.0474-8e-3 -0.0625l-0.01-0.0103-0.0351-0.0351-0.0294-0.0351-6e-3 -0.01c-9e-3 -0.0137-0.0237-0.0218-0.0398-0.0212zm2.4836 0.0879c-0.0117 2.8e-4 -0.0228 5e-3 -0.031 0.0134-0.0177 0.0182-0.0167 0.0475 2e-3 0.0646l0.0233 0.0212 4e-3 4e-3 0.0465 0.0331c1e-3 7.6e-4 3e-3 1e-3 4e-3 2e-3l0.0227 0.0145-0.0367 3e-3c-6.9e-4 -2e-5 -1e-3 -2e-5 -2e-3 0l-0.0289 6e-3c-0.0241 4e-3 -0.0406 0.0265-0.0372 0.0506 4e-3 0.025 0.0278 0.0419 0.0527 0.0372l0.0253-4e-3 0.0682-6e-3h0.0336c0.0235-2.3e-4 0.0428-0.0185 0.0445-0.0419 4e-3 0.0109 0.013 0.0196 0.0238 0.0243l8e-3 2e-3c6.7e-4 7.1e-4 1e-3 1e-3 2e-3 2e-3l0.03 9e-3 6e-3 2e-3c5e-3 3e-3 0.011 5e-3 0.0171 6e-3l5e-3 5.2e-4 7e-3 2e-3c6.7e-4 7.1e-4 1e-3 1e-3 2e-3 2e-3l0.0605 0.0134c0.01 2e-3 0.0197-3e-5 0.0284-5e-3l7e-3 1e-3 0.0176 4e-3c0.0174 4e-3 0.0354-3e-3 0.046-0.017 2e-3 0.0211 0.0187 0.0379 0.0398 0.0403l0.0176 2e-3c1e-3 6e-5 3e-3 6e-5 4e-3 0l8e-3 5.2e-4c3e-3 3e-3 6e-3 5e-3 9e-3 7e-3l0.0512 0.0196 0.0584 0.0253 0.01 6e-3c0.0221 0.0112 0.0492 2e-3 0.0605-0.0196 0.0113-0.022 3e-3 -0.049-0.0191-0.0605l-0.0103-6e-3c-5.2e-4 -1e-5 -1e-3 -1e-5 -2e-3 0l-6e-3 -3e-3c9.2e-4 -3e-3 2e-3 -5e-3 2e-3 -8e-3 -2e-5 -0.0248-0.0201-0.0449-0.0449-0.045l-0.0388-2e-3 -0.0724-4e-3 -0.0176-2e-3c-0.0154-2e-3 -0.0306 4e-3 -0.0403 0.0165-3e-3 -0.019-0.0173-0.0342-0.0362-0.0377l-0.0191-4e-3c-6.9e-4 -2e-5 -1e-3 -2e-5 -2e-3 0l-0.0703-0.0114c-1e-3 -6e-5 -3e-3 -6e-5 -4e-3 0l-0.03-3e-3 -0.0439-0.0145-6e-3 -2e-3c-0.0108-4e-3 -0.0228-4e-3 -0.0336 0-0.0116 5e-3 -0.0207 0.0137-0.0253 0.0253-2e-3 5e-3 -2e-3 0.0103-2e-3 0.0155-6e-3 -0.0175-0.0214-0.0298-0.0398-0.031 3.5e-4 -1.7e-4 6.9e-4 -3.4e-4 1e-3 -5.2e-4 0.0133-0.0215 6e-3 -0.0497-0.0155-0.0625l-0.0372-0.0212-0.0408-0.0336-0.0238-0.0191c-8e-3 -8e-3 -0.0195-0.012-0.031-0.0119zm1.2992 8e-3c-0.0121-1e-3 -0.0243 2e-3 -0.0336 0.0103l-0.0134 0.01-0.047 0.031-0.047 0.0274c-0.0213 0.012-0.0291 0.0389-0.0176 0.0605 0.0121 0.0226 0.0405 0.0306 0.0625 0.0176l0.047-0.0274c1e-3 -6.2e-4 3e-3 -1e-3 4e-3 -2e-3l0.0506-0.0336c7.1e-4 -6.7e-4 1e-3 -1e-3 2e-3 -2e-3l0.0155-0.0134c0.0187-0.0157 0.0214-0.0435 6e-3 -0.0625-7e-3 -9e-3 -0.018-0.0143-0.0294-0.0155zm-2.4117 0.0465-5.2e-4 5.2e-4c-0.0123-2e-3 -0.025 3.9e-4 -0.0351 8e-3l-0.0274 0.0217-0.047 0.0289-0.0331 0.016c-0.0221 0.0113-0.0309 0.0383-0.0196 0.0605 0.0115 0.0219 0.0385 0.0304 0.0605 0.0191l0.0336-0.0176c1e-3 -6.3e-4 2e-3 -1e-3 4e-3 -2e-3l0.0512-0.0289c1e-3 -1e-3 2e-3 -3e-3 4e-3 -4e-3l0.0295-0.0217c0.02-0.0145 0.0246-0.0424 0.0103-0.0625-7e-3 -0.01-0.0177-0.0158-0.0294-0.0176zm-1.1622 0.0341c-6e-3 -7.2e-4 -0.0122-1.9e-4 -0.0181 2e-3 -0.0108 4e-3 -0.0199 0.0112-0.0253 0.0212-0.013 0.0221-5e-3 0.0505 0.0176 0.0625l0.0274 0.0155c1e-3 5e-5 2e-3 5e-5 4e-3 0l0.061 0.0295c1e-3 5e-5 2e-3 5e-5 4e-3 0l0.0315 0.014c0.0237 9e-3 0.0501-3e-3 0.0584-0.0274 8e-3 -0.0227-3e-3 -0.0477-0.0253-0.0569l-0.031-0.0114-0.0589-0.0274-0.0269-0.0155c-5e-3 -3e-3 -0.0114-5e-3 -0.0176-6e-3zm3.3393 0.0434c-8e-3 -1e-3 -0.0159-3.2e-4 -0.0233 3e-3v5.2e-4l-0.0119 6e-3 -0.0682 0.0191-0.045 0.0119c-7e-3 3e-3 -0.0127 7e-3 -0.0176 0.0119-3e-3 -2e-3 -5e-3 -4e-3 -8e-3 -6e-3l-0.076 0.0119-0.0548 8e-3c-0.0247 2e-3 -0.0429 0.0239-0.0408 0.0486 3e-3 0.0249 0.0258 0.0426 0.0507 0.0393l0.0548-6e-3c1e-3 5e-5 2e-3 5e-5 4e-3 0l0.0786-0.014c7e-3 -2e-3 0.0125-5e-3 0.0176-0.01 6.9e-4 2e-5 1e-3 2e-5 2e-3 0 4e-3 1e-3 8e-3 2e-3 0.0114 2e-3l0.047-0.0103c7.1e-4 -6.7e-4 1e-3 -1e-3 2e-3 -2e-3l0.0703-0.0212c1e-3 6e-5 3e-3 6e-5 4e-3 0l0.0114-4e-3c0.0239-8e-3 0.0363-0.0347 0.0274-0.0584-5e-3 -0.0157-0.0188-0.0272-0.0351-0.03zm-1.9999 0.0145c-0.0117-2.7e-4 -0.023 4e-3 -0.0315 0.0119-0.0182 0.0177-0.0182 0.0469 0 0.0646v2e-3c1e-3 7.6e-4 3e-3 1e-3 4e-3 2e-3l0.0253 0.0212c6.7e-4 7.1e-4 1e-3 1e-3 2e-3 2e-3l0.0295 0.0196c6.6e-4 7.1e-4 1e-3 1e-3 2e-3 2e-3l0.031 0.0176c1e-3 7.6e-4 3e-3 1e-3 4e-3 2e-3l0.0264 0.0129c-7e-3 5e-3 -0.0134 0.0115-0.0171 0.0196-9e-3 0.0233 2e-3 0.0498 0.0253 0.0589l0.0217 8e-3 0.0527 0.0274 0.0372 0.0233c0.021 0.0137 0.049 8e-3 0.0625-0.0134 0.0136-0.0211 7e-3 -0.0492-0.0139-0.0625l-0.0377-0.0243c4e-3 2e-3 8e-3 4e-3 0.0124 5e-3l0.0295 4e-3c6.9e-4 2e-5 1e-3 2e-5 2e-3 0l0.0429 6e-3c1e-3 6e-5 3e-3 6e-5 4e-3 0h0.0429c1e-3 6e-5 3e-3 6e-5 4e-3 0h0.0176c0.0246-1e-3 0.0437-0.0219 0.0429-0.0465-8.6e-4 -0.025-0.022-0.0446-0.047-0.0434h-0.0563l-0.0413-4e-3 -0.0274-6e-3c-0.0244-4e-3 -0.0472 0.0129-0.0512 0.0372-3e-3 0.0172 4e-3 0.0345 0.0186 0.0444l-0.0558-0.0289c-1e-3 -6e-5 -3e-3 -6e-5 -4e-3 0l-0.0196-8e-3c7e-3 -5e-3 0.0129-0.011 0.0165-0.0186 0.01-0.0221 2e-5 -0.0479-0.0217-0.0584l-0.0274-0.014-0.0269-0.0155-0.0258-0.0155-0.0191-0.0176h-2e-3c-8e-3 -9e-3 -0.0196-0.0137-0.0315-0.014zm-0.416 0.0264c-8e-3 -2e-3 -0.0157-1e-3 -0.0233 1e-3h-5.2e-4l-0.0191 8e-3 -0.0646 0.0155-0.0408 8e-3c-0.0243 4e-3 -0.0409 0.0268-0.0372 0.0512 1e-3 6e-3 4e-3 0.012 8e-3 0.017l-0.0336 0.01c-5.2e-4 -1e-5 -1e-3 -1e-5 -2e-3 0l-0.0295 0.0108c8e-3 -9e-3 0.0124-0.0206 0.0119-0.0326-2e-3 -0.024-0.0229-0.042-0.047-0.0408l-0.0408 2e-3h-0.0899c-0.0241-1e-3 -0.0448 0.0168-0.047 0.0408-2e-3 0.0256 0.0172 0.048 0.0429 0.0491h0.0176c6.9e-4 2e-5 1e-3 2e-5 2e-3 0h0.0765c6.9e-4 2e-5 1e-3 2e-5 2e-3 0l0.0362-4e-3c-0.0194 0.0105-0.0284 0.0334-0.0212 0.0543 9e-3 0.0223 0.0342 0.0334 0.0568 0.0253l0.0584-0.0196 0.0646-0.0191c0.0242-5e-3 0.0399-0.0285 0.0351-0.0527-1e-3 -4e-3 -3e-3 -8e-3 -6e-3 -0.0119 6.9e-4 2e-5 1e-3 2e-5 2e-3 0l0.0481-0.0124c-1e-3 5e-3 -2e-3 0.01-2e-3 0.0145 4e-3 0.025 0.0278 0.0419 0.0527 0.0372h4e-3l0.0682-6e-3 0.0563-2e-3c0.025-8.6e-4 0.0446-0.022 0.0434-0.047-1e-3 -0.0248-0.0222-0.044-0.047-0.0429l-0.0584 2e-3c-6.9e-4 -2e-5 -1e-3 -2e-5 -2e-3 0l-0.0434 4e-3c3e-3 -9e-3 4e-3 -0.0195 5.2e-4 -0.0289-5e-3 -0.0153-0.0174-0.027-0.0331-0.0305zm-0.6661 0.0129c-0.0243-6e-3 -0.0489 9e-3 -0.0548 0.0331-6e-3 0.0243 9e-3 0.0489 0.0331 0.0548l0.0512 0.0119c1e-3 7.4e-4 2e-3 1e-3 4e-3 2e-3l0.078 0.0114c6.9e-4 2e-5 1e-3 2e-5 2e-3 0l4e-3 2e-3c0.0249 2e-3 0.0469-0.016 0.0491-0.0408 2e-3 -0.0243-0.015-0.0461-0.0393-0.0491h-2e-3l-0.076-0.0134zm0.94309 0.047c-0.0239-2e-3 -0.0453 0.0149-0.0486 0.0387-4e-3 0.0256 0.015 0.049 0.0408 0.0512h0.0196l0.0646 0.0114 0.0429 0.0103c0.0242 5e-3 0.0478-0.011 0.0527-0.0351 5e-3 -0.0236-0.01-0.0468-0.0331-0.0527l-0.0429-0.0103c-1e-3 -7.6e-4 -3e-3 -1e-3 -4e-3 -2e-3l-0.0682-0.01c-1e-3 -6e-5 -3e-3 -6e-5 -4e-3 0zm1.865 0.0977c-0.0163-2e-3 -0.0325 4e-3 -0.0424 0.0176-0.0163 0.0198-0.0128 0.0492 8e-3 0.0646l0.0372 0.0269 0.0408 0.0393 0.0155 0.0176c0.0157 0.0187 0.0435 0.0214 0.0625 6e-3 0.02-0.0159 0.0229-0.0452 6e-3 -0.0646l-0.0176-0.0196c-6.6e-4 -7.1e-4 -1e-3 -1e-3 -2e-3 -2e-3l-0.045-0.0429c-1e-3 -7.6e-4 -3e-3 -1e-3 -4e-3 -2e-3l-0.0372-0.0315c-6e-3 -5e-3 -0.0138-8e-3 -0.0217-9e-3zm-2.5249 0.0305c-6e-3 3.4e-4 -0.0121 2e-3 -0.0176 5e-3l-4e-3 4e-3c-1e-3 4.5e-4 -3e-3 9.7e-4 -4e-3 2e-3l-0.0543 0.0357c-1e-3 4.5e-4 -3e-3 9.7e-4 -4e-3 2e-3l-0.0512 0.0393c-5.4e-4 6.8e-4 -1e-3 1e-3 -2e-3 2e-3l-0.045 0.0429-4e-3 4e-3 -0.0233 0.0274c-0.0173 0.0187-0.0156 0.048 4e-3 0.0646 0.0194 0.0166 0.0487 0.0138 0.0646-6e-3l0.0238-0.0253 0.0387-0.0393 2e-3 -2e-3 0.047-0.0351 0.0506-0.0331 4e-3 -2e-3c0.0213-0.012 0.0291-0.0389 0.0176-0.0605-5e-3 -0.0102-0.0144-0.018-0.0253-0.0217-6e-3 -2e-3 -0.0116-3e-3 -0.0176-3e-3zm1.1302 0.0868c-8e-3 1e-3 -0.015 4e-3 -0.0212 9e-3l5.1e-4 5.2e-4c-0.0193 0.0151-0.023 0.0429-8e-3 0.0625l0.0238 0.0295 0.0212 0.0372 0.0155 0.0372v-4e-3c4e-3 0.0126 0.0128 0.023 0.0248 0.0284l1e-3 0.0207c-2.2e-4 3e-3 -2.2e-4 5e-3 0 8e-3l7e-3 0.03c-0.0118 8e-3 -0.0195 0.0201-0.0207 0.0341l-8e-3 0.0372-0.014 0.0393-0.0155 0.031c-0.0112 0.0221-2e-3 0.0492 0.0196 0.0605 0.022 0.0113 0.049 3e-3 0.0605-0.0191l0.0176-0.0336c8.1e-4 -2e-3 2e-3 -4e-3 2e-3 -6e-3l0.0155-0.047c8.4e-4 -2e-3 2e-3 -4e-3 2e-3 -6e-3l0.01-0.0444c0.0181-0.0108 0.0262-0.0327 0.0196-0.0527l2e-3 2e-3 -8e-3 -0.0413-2e-3 -0.0388 4e-3 -0.0372c2e-3 -0.025-0.0163-0.0472-0.0413-0.0491-5e-3 1.1e-4 -0.0106 1e-3 -0.0155 3e-3l-0.0238-0.0382c-6.2e-4 -1e-3 -1e-3 -3e-3 -2e-3 -4e-3l-0.0253-0.0315c-0.01-0.0124-0.0256-0.0187-0.0413-0.0165zm1.5622 0.0863c-8e-3 -4.6e-4 -0.0157 1e-3 -0.0227 5e-3l5.1e-4 5.2e-4c-0.0221 0.0113-0.0309 0.0383-0.0196 0.0605l0.0134 0.0393 8e-3 0.0393 2e-3 0.0351c1e-3 0.0246 0.0219 0.0437 0.0465 0.0429 0.025-8.6e-4 0.0445-0.022 0.0434-0.047l-2e-3 -0.0393c-5.6e-4 -2e-3 -1e-3 -4e-3 -2e-3 -6e-3l-8e-3 -0.045c-2.6e-4 -3e-3 -7.8e-4 -6e-3 -2e-3 -8e-3l-0.016-0.0444c-3.7e-4 -2e-3 -8.9e-4 -4e-3 -2e-3 -6e-3l-2e-3 -2e-3c-7e-3 -0.0144-0.022-0.0237-0.0382-0.0243zm-2.9445 0.0889c-0.0162 3e-3 -0.0297 0.014-0.0351 0.0295l-0.0114 0.0372c-8.4e-4 2e-3 -2e-3 4e-3 -2e-3 6e-3l-0.0103 0.0444c-2.5e-4 3e-3 -2.5e-4 6e-3 0 8e-3l-2e-3 0.045c-2.2e-4 3e-3 -2.2e-4 5e-3 0 8e-3v4e-3c2e-3 0.0255 0.0252 0.0441 0.0506 0.0408 0.0249-3e-3 0.0426-0.0258 0.0393-0.0506l2e-3 -0.0393 8e-3 -0.0408 0.0119-0.031c9e-3 -0.0239-3e-3 -0.0506-0.0274-0.0589v-5.2e-4c-8e-3 -3e-3 -0.0158-4e-3 -0.0238-2e-3zm1.5606 0.1664c-0.0116-2e-3 -0.0235 9.5e-4 -0.0331 8e-3 -0.0205 0.014-0.0259 0.042-0.0119 0.0625l0.0103 0.0139c6.2e-4 1e-3 1e-3 3e-3 2e-3 4e-3l0.0367 0.0429 4e-3 4e-3 0.045 0.0408c6.2e-4 1e-3 1e-3 3e-3 2e-3 4e-3l0.0507 0.0388c1e-3 7.6e-4 3e-3 1e-3 4e-3 2e-3l0.0295 0.0196c0.0207 0.0122 0.0473 6e-3 0.0605-0.014 0.014-0.0205 9e-3 -0.0485-0.0119-0.0625l-0.0274-0.0176-0.0486-0.0388c-6.9e-4 -2e-5 -1e-3 -2e-5 -2e-3 0l-0.0393-0.0372-0.0331-0.0393-8e-3 -0.0114c-7e-3 -0.0103-0.0174-0.0174-0.0294-0.0196zm1.3803 7e-3c-6e-3 -3.5e-4 -0.0112 3.5e-4 -0.0165 2e-3l-5.2e-4 5.2e-4c-0.0116 5e-3 -0.0208 0.0137-0.0253 0.0253l-2e-3 6e-3 -0.0212 0.0372-0.0295 0.0351-0.0155 0.0155c-0.0182 0.0177-0.0182 0.0469 0 0.0646 0.0177 0.0182 0.0469 0.0182 0.0646 0l0.0176-0.0176c1e-3 -1e-3 2e-3 -3e-3 4e-3 -4e-3l0.0315-0.0408c7.6e-4 -1e-3 1e-3 -3e-3 2e-3 -4e-3l0.0253-0.0408c2e-3 -2e-3 3e-3 -4e-3 4e-3 -6e-3l4e-3 -0.01c9e-3 -0.0233-2e-3 -0.0498-0.0253-0.0589-5e-3 -2e-3 -0.0108-4e-3 -0.0165-4e-3zm-2.9275 0.0889c-6e-3 7.3e-4 -0.0118 3e-3 -0.0171 6e-3 -0.0218 0.0128-0.0288 0.041-0.0155 0.0625l0.0233 0.0388c1e-3 2e-3 3e-3 4e-3 4e-3 6e-3l0.031 0.0388 0.0314 0.0314c0.018 0.0163 0.0456 0.0154 0.0625-2e-3s0.0169-0.0451 0-0.0625l-0.0238-0.0253-0.0289-0.0351-0.0217-0.0372c-6e-3 -0.01-0.0161-0.0169-0.0274-0.0196-6e-3 -2e-3 -0.012-2e-3 -0.0181-2e-3zm1.3234 0.0475c-7e-3 2e-3 -0.0144 5e-3 -0.0202 0.0103l-0.0351 0.0315-0.047 0.0372-0.0155 0.0114c-0.0213 0.0133-0.0275 0.0414-0.0139 0.0625 0.0133 0.0213 0.0414 0.0276 0.0625 0.014l0.0176-0.014c1e-3 -6.2e-4 3e-3 -1e-3 4e-3 -2e-3l0.0486-0.0388c1e-3 -6.2e-4 3e-3 -1e-3 4e-3 -2e-3l0.0351-0.0351c0.0174-0.0169 0.0183-0.0445 2e-3 -0.0625-0.011-0.0113-0.027-0.016-0.0424-0.0124zm1.4108 0.0553c-6e-3 1e-3 -0.0119 3e-3 -0.0171 7e-3l-6e-3 4e-3 -0.0543 0.0274-0.0548 0.0217c-0.0225 0.01-0.0331 0.0357-0.0238 0.0584 9e-3 0.0234 0.0357 0.0348 0.0589 0.0253l0.0563-0.0233c7.1e-4 -6.6e-4 1e-3 -1e-3 2e-3 -2e-3l0.0589-0.0274c1e-3 -6.3e-4 2e-3 -1e-3 4e-3 -2e-3l8e-3 -6e-3c0.0211-0.0135 0.0271-0.0416 0.0134-0.0625-6e-3 -0.01-0.0157-0.0168-0.0269-0.0196h-5.2e-4c-6e-3 -1e-3 -0.0121-2e-3 -0.0181-5.2e-4zm-0.90434 0.0217c-6e-3 -3.5e-4 -0.0112 3.6e-4 -0.0165 2e-3h-5.1e-4c-0.0112 4e-3 -0.0203 0.0125-0.0253 0.0232-0.0111 0.0232-5.2e-4 0.0511 0.0233 0.061l0.0274 0.0114c6.6e-4 7.1e-4 1e-3 1e-3 2e-3 2e-3l0.0667 0.0233c5.2e-4 1e-5 1e-3 1e-5 2e-3 0l0.0356 0.0103c0.023 6e-3 0.0468-7e-3 0.0543-0.0294 8e-3 -0.0243-6e-3 -0.0501-0.031-0.0568l-0.031-0.01-0.0625-0.0217-0.0274-0.0114c-5e-3 -2e-3 -0.0108-4e-3 -0.0165-4e-3zm-1.6288 0.0605c-6e-3 -3.5e-4 -0.0112 3.6e-4 -0.0165 2e-3h-5.2e-4c-0.012 4e-3 -0.0219 0.012-0.0274 0.0233-0.0102 0.0217-2e-3 0.0477 0.0196 0.0589l0.0548 0.0289c1e-3 7.6e-4 3e-3 1e-3 4e-3 2e-3l0.0625 0.0232c1e-3 7.5e-4 2e-3 1e-3 4e-3 2e-3l6e-3 2e-3c0.0237 7e-3 0.0489-6e-3 0.0563-0.0295 7e-3 -0.0235-5e-3 -0.0487-0.0289-0.0563l-6e-3 -2e-3 -0.0584-0.0233-0.0527-0.0274c-5e-3 -2e-3 -0.0108-4e-3 -0.0165-4e-3zm0.91519 0.01c-8e-3 -9.7e-4 -0.0163 2.8e-4 -0.0238 4e-3l-0.0372 0.0181-0.0625 0.0233-0.0196 6e-3c-0.0235 7e-3 -0.0373 0.0311-0.031 0.0548 7e-3 0.0237 0.031 0.0378 0.0548 0.0315l0.0232-6e-3c7.1e-4 -6.7e-4 1e-3 -1e-3 2e-3 -2e-3l0.0641-0.0232c1e-3 -6.2e-4 3e-3 -1e-3 4e-3 -2e-3l0.0393-0.0155c0.0235-0.01 0.034-0.0374 0.0233-0.0605-6e-3 -0.0151-0.0204-0.0256-0.0367-0.0274zm1.3632 2e-3 -6e-3 5.2e-4 -0.0667 0.0119-0.0548 4e-3c-0.0247 2e-3 -0.0429 0.0239-0.0408 0.0486 2e-3 0.0247 0.0239 0.0429 0.0486 0.0408l0.0569-6e-3c1e-3 6e-5 3e-3 6e-5 4e-3 0l0.0682-0.0103c1e-3 -4.5e-4 3e-3 -9.7e-4 4e-3 -2e-3l8e-3 -2e-3c0.0236-6e-3 0.0384-0.029 0.0336-0.0527-6e-3 -0.0246-0.0303-0.0397-0.0548-0.0336zm-0.38499 5e-3c-0.0244-4e-3 -0.0472 0.0129-0.0512 0.0372-3e-3 0.0242 0.0131 0.0466 0.0372 0.0506l0.0408 8e-3c6.9e-4 2e-5 1e-3 2e-5 2e-3 0l0.0724 6e-3c6.9e-4 2e-5 1e-3 2e-5 2e-3 0l0.0217 2e-3c0.0246 8.5e-4 0.0454-0.0183 0.0465-0.0429 1e-3 -0.0248-0.0181-0.0459-0.0429-0.047l-0.0196-2e-3 -0.0703-6e-3zm-1.6371 0.0739c-0.0242-3e-3 -0.0466 0.0131-0.0506 0.0372-3e-3 0.0242 0.0131 0.0467 0.0372 0.0507l0.0646 0.01c1e-3 7.4e-4 2e-3 1e-3 4e-3 2e-3l0.0687 6e-3c0.0247 2e-3 0.0464-0.0162 0.0486-0.0408 2e-3 -0.0249-0.016-0.0469-0.0408-0.0491l-0.0687-6e-3zm0.38861 0-0.0527 8e-3 -0.0682 8e-3h-8e-3c-0.025 8.6e-4 -0.0445 0.022-0.0434 0.047 1e-3 0.0248 0.0222 0.044 0.047 0.0429h0.01c6.9e-4 2e-5 1e-3 2e-5 2e-3 0l0.0703-8e-3c1e-3 6e-5 3e-3 6e-5 4e-3 0l0.0527-0.01c0.0249-3e-3 0.0426-0.0258 0.0393-0.0507-4e-3 -0.025-0.0278-0.0418-0.0527-0.0372z" color="#000000" fill="#a02c2c" stroke-dasharray="0.235343" stroke-linecap="round" stroke-linejoin="round" stroke-width="1.7433" style="-inkscape-stroke:none"/> </g> <g transform="matrix(.45743 -.061683 .063266 .42138 178.75 94.683)" stroke-width="2.255"> <path d="m317.43 113.7h2.5233v2.1532h-2.5233z" fill="#f9f9f9" stroke-linecap="round" stroke-linejoin="round" stroke-width=".20295"/> <rect x="320.41" y="114.41" width="1.4967" height=".73838" ry=".20135" fill="#999"/> <rect x="318.26" y="114.41" width=".86529" height=".73838" ry=".20135" fill="#999"/> <rect x="316.13" y="114.01" width="2.362" height="1.4967" ry=".40814" fill="#dcc87f"/> <rect x="318.71" y="116.09" width=".023386" height=".093544" ry=".011693" fill="#e9ddaf"/> <rect x="318.82" y="114.03" width="2.2217" height="1.4967" ry=".40814" fill="#dcc87f"/> <rect x="321.71" y="114.21" width=".68338" height="1.1617" ry=".31678" fill="#808080"/> </g> </g> <path d="m279.71 103.03s2.2836-2.6606 2.9299-2.4667 2.607 2.0338 2.8922 2.3752c0.1289 0.15432 0.16146 0.58935 0.16146 0.58935l0.33936 0.67631c-0.21332 0.1401-0.5757 0.12385-0.75399-0.0647l-1.0968-1.0983c0.35111 1.2081-2.0811 1.3317-3.5458 1.8415-0.75261-0.37549-1.1209-0.96059-0.92637-1.8527z" fill="#ffb268" stroke-linecap="round" stroke-linejoin="round" stroke-width=".09"/> <g transform="matrix(-.32737 -.4308 -.43553 .33096 442.64 222.38)" stroke-width="1.8381"> <g transform="translate(.016536)" stroke-linecap="round" stroke-linejoin="round" stroke-width=".16543"> <path d="m348.7 128.47c0.42142 0 1.173 0.25233 1.0583 0.87644l-0.29766 1.6206c-0.0761 0.41449-0.33926 0.76067-0.76068 0.76067-0.42141 0-0.67803-0.34744-0.76068-0.76067l-0.34727-1.7363c-0.083-0.41489 0.68654-0.76068 1.108-0.76068z" fill="#b83333"/> <path transform="matrix(-1 0 0 1 694.71 -.8599)" d="m345.55 132.32c-0.28882-0.6915-0.57763-1.383-0.58543-1.9754-8e-3 -0.59246 0.26542-1.0858 0.51117-0.77127s0.46403 1.4371 0.6823 2.5596" fill="none" stroke="#a02c2c"/> <path transform="translate(2.7451 -.87643)" d="m345.55 132.32c-0.31638-0.6474-0.63276-1.2948-0.66811-1.8845-0.0354-0.5897 0.2103-1.1217 0.46983-0.82915 0.25954 0.29253 0.53293 1.4096 0.80632 2.5266" fill="none" stroke="#a02c2c"/> <path transform="translate(2.9931 -.94258)" d="m345.55 132.32c-0.3274-0.68598-0.6548-1.372-0.6626-1.9644-8e-3 -0.59245 0.30401-1.0914 0.51117-0.72166 0.20717 0.3697 0.30968 1.608 0.4122 2.8463" fill="none" stroke="#a02c2c"/> <path transform="matrix(-.97589 .21827 .21827 .97589 657.59 -73.165)" d="m345.55 132.32c-0.33037-0.67402-0.66075-1.348-0.66855-1.9405-8e-3 -0.59245 0.30699-1.1033 0.51564-0.7396 0.20865 0.36372 0.31116 1.602 0.41368 2.8403" fill="none" stroke="#a02c2c"/> <path transform="matrix(-.97589 .21827 .21827 .97589 657.21 -73.364)" d="m345.69 132.54c-0.37234-0.76066-0.74469-1.5213-0.77496-2.1511-0.0303-0.62979 0.28154-1.1287 0.4887-0.759 0.20717 0.3697 0.30968 1.608 0.4122 2.8463" fill="none" stroke="#a02c2c"/> </g> <g transform="matrix(1 0 0 -1 .016536 264.22)" stroke-linecap="round" stroke-linejoin="round" stroke-width=".16543"> <path d="m348.7 128.47c0.42142 0 1.173 0.25233 1.0583 0.87644l-0.29766 1.6206c-0.0761 0.41449-0.33926 0.76067-0.76068 0.76067-0.42141 0-0.67803-0.34744-0.76068-0.76067l-0.34727-1.7363c-0.083-0.41489 0.68654-0.76068 1.108-0.76068z" fill="#b83333"/> <path transform="matrix(-1 0 0 1 694.71 -.8599)" d="m345.55 132.32c-0.28882-0.6915-0.57763-1.383-0.58543-1.9754-8e-3 -0.59246 0.26542-1.0858 0.51117-0.77127s0.46403 1.4371 0.6823 2.5596" fill="none" stroke="#a02c2c"/> <path transform="translate(2.7451 -.87643)" d="m345.55 132.32c-0.31638-0.6474-0.63276-1.2948-0.66811-1.8845-0.0354-0.5897 0.2103-1.1217 0.46983-0.82915 0.25954 0.29253 0.53293 1.4096 0.80632 2.5266" fill="none" stroke="#a02c2c"/> <path transform="translate(2.9931 -.94258)" d="m345.55 132.32c-0.3274-0.68598-0.6548-1.372-0.6626-1.9644-8e-3 -0.59245 0.30401-1.0914 0.51117-0.72166 0.20717 0.3697 0.30968 1.608 0.4122 2.8463" fill="none" stroke="#a02c2c"/> <path transform="matrix(-.97589 .21827 .21827 .97589 657.59 -73.165)" d="m345.55 132.32c-0.33037-0.67402-0.66075-1.348-0.66855-1.9405-8e-3 -0.59245 0.30699-1.1033 0.51564-0.7396 0.20865 0.36372 0.31116 1.602 0.41368 2.8403" fill="none" stroke="#a02c2c"/> <path transform="matrix(-.97589 .21827 .21827 .97589 657.21 -73.364)" d="m345.69 132.54c-0.37234-0.76066-0.74469-1.5213-0.77496-2.1511-0.0303-0.62979 0.28154-1.1287 0.4887-0.759 0.20717 0.3697 0.30968 1.608 0.4122 2.8463" fill="none" stroke="#a02c2c"/> </g> <rect x="347.93" y="131.2" width="1.6123" height="1.9844" ry=".20671" fill="#e3dedb"/> </g> <path transform="matrix(-.69734 .71674 .71674 .69734 435.46 -217.76)" d="m334.82 115.59c1.6589 1.2563 3.3177 2.5126 5.3689 1.916 2.0511-0.59667 4.4946-3.0464 6.7415-3.8549s4.2972 0.0242 6.3475 0.85686" fill="none" stroke="#a02c2c" stroke-linecap="round" stroke-linejoin="round" stroke-width=".09"/> <g transform="matrix(-.52391 .85177 .85177 .52391 360.94 -242.2)"> <path d="m333.54 115.46c0.0394-0.0222 0.1657 0.12103 0.29156 0.3725l1.1676 2.4458c-5e-3 7e-3 -0.01 0.0134-0.022 7e-3l-1.2857-2.359c-0.15282-0.29794-0.18635-0.44741-0.15143-0.46699zm0.0609 0.10505c-0.0147 7e-3 -0.0225 0.0282-0.0151 0.063 0.0225 0.10312 0.21361 0.38941 0.23347 0.37905 0.0196-0.0104-0.0922-0.34243-0.1627-0.42037-0.019-0.022-0.0411-0.0288-0.0557-0.0218z" fill="url(#k)"/> <path transform="matrix(-1 0 0 1 667.37 .54226)" d="m333.18 117.47c-0.10728-0.13603-0.21454-0.27206-0.14355-0.61666 0.071-0.34461 0.32025-0.89777 0.56951-1.451" fill="none" stroke="#a02c2c" stroke-linecap="round" stroke-linejoin="round" stroke-width=".09"/> </g> <g transform="matrix(1.1178 0 0 1.1178 -33.573 -12.112)" stroke-linecap="round" stroke-linejoin="round" stroke-width=".080518"> <path d="m280.04 102.84c5.2e-4 -0.13787 0.13681-0.38149 0.45201-0.55471 0.15588-0.32894 0.40474-0.56085 0.53093-0.62098 0.21844-0.20046 0.4128-0.21805 0.65531-0.36621 0.30798-0.18816 0.4544-0.51747 0.77096-0.59748 1.1186-0.20811 1.3158 0.78827 1.7153 1.6286 0.64819 0.50503 1.0806 1.2326 1.6098 1.8566 0 0 0.0344 0.2644-0.0982 0.34743-0.1864 0.11674-0.53748-0.0419-0.53748-0.0419s-0.40498-0.36292-0.51157-0.39854c-0.17321-0.0579-1.0033-0.7643-1.1804-0.96304-0.30195-0.37081-0.56881-0.75382-0.87076-1.1757-0.0523 0.015-0.0984-0.0758-0.0496 0.0572 0.26239 0.33692 0.45597 0.54557 0.72276 1.0215 0.41795 0.34337 0.76078 0.60762 1.173 1.0338 0.15465-4.9e-4 0.1847 2e-3 0.31597 0.0252l0.43226 0.40639c-0.14198 0.14394-0.0934 0.14284-0.47704 0.3104 0 0-0.25881 0.0744-0.62502-0.0605-0.3662-0.13492-1.5612-0.94441-1.5612-0.94441l-0.95919-1.1167c-0.13114-0.0373-0.0108-8e-3 -0.0386 0.0407l0.95025 1.1451 1.4037 0.76526c-0.14912 0.15537-0.54593 0.25096-0.85511 0.24498-0.17238-3e-3 -0.7799-0.31072-0.85698-0.34927-0.0771-0.0386-0.28015-0.17113-0.28015-0.17113l-0.92514-0.96367c-0.0889-2e-3 -0.0609-8e-3 -0.0579 0.0634l0.78128 0.85602 1.0318 0.47718c0.0977 9e-3 -0.18755 0.23833-0.70067 0.21551-0.0771-0.0579-0.87316-0.19614-0.87316-0.19614s-0.1346-0.0714-0.18583-0.13165c-0.0405-0.0477-0.11119-0.14727-0.11119-0.14727s-0.48242-0.41508-0.61675-0.69385c-0.14718-0.30544-0.17349-1.0022-0.17349-1.0022z" fill="#ffc58e"/> <path d="m285.24 104.52c-0.23344-0.40623 0.12068-0.66422 0.54515-0.28324-0.30622-0.25801-0.75136-0.23945-0.54515 0.28324z" fill="#ffb773"/> </g> </g> </g> </svg>